<svg width="512" height="512" xmlns="http://www.w3.org/2000/svg"><path d="M299.235 102.26v.571c0 3.432 0 6.864.569 10.123.569 1.542.569 3.259 1.137 4.802.57.97.57 2.687 1.138 3.66l.57.399-3.983 1.21c-1.138.345-2.276.119-3.413-.107a8571.21 8571.21 0 0 0-3.414-.676c-1.137-.225-2.275-1.02-3.413-1.245-2.275-1.589-4.55-3.746-5.689-7.39v-.57c-1.137-2.503-1.137-5.923-.568-8.95l1.706-5.659v-.57c.57-1.887 1.138-3.205 2.276-4.698.569-1.889 1.706-3.383 2.275-5.273l1.707-2.243c0-.571.569-1.32 1.138-2.068 5.12 2.979 7.395 6.276 7.964 11.82v.571c.569 1.54.569 3.83 0 6.292zM51.775 383.057c-.57 7.793 2.275 14.134 6.826 18.393l-1.707 5.368c-.569 2.334-1.138 4.669-1.138 6.308 0 3.277.57 6.406 1.707 9.935 2.844 6.368 8.533 10.918 14.79 12.596 0 1.644 0 3.288.57 5.334.568 2.047 1.137 3.546 1.706 5.594 1.138 2.452 3.413 5.166 6.258 7.19 5.12 4.2 12.515 5.64 19.91 3.783 1.707 3.43 3.983 5.617 6.827 8.217 2.844 2.051 5.689 3 8.533 3.4 3.413.812 6.827 1.073 10.809.087 3.413-.845 7.395-1.831 10.808-3.786 2.276 2.212 5.12 3.73 7.965 5.25 3.413.828 6.257 1.24 9.102 1.098 7.395-.145 14.221-2.937 19.91-7.13 2.845 1.537 6.258 2.936 9.671 3.218 1.707.142 2.844.423 4.551.565 1.707.143 3.413-.275 5.12-.692l1.138-.279c2.844-.696 6.257-2.093 9.102-3.351 1.706-.98 3.413-1.961 5.12-3.504 1.137-.842 2.844-1.824 3.982-3.792 3.413 1.414 6.826 1.703 10.808 1.854 1.707.146 3.414-.272 4.551-.55 1.707-.418 3.414-.836 5.12-1.82 3.982-1.54 7.396-3.51 10.24-5.906 3.413-2.538 6.258-5.505 8.533-8.334l5.12.439 6.258-1.543c2.844-.701 6.257-2.68 9.67-4.092 2.845-1.841 5.69-4.824 9.102-8.52 2.845-2.987 5.12-6.407 6.258-9.545 3.982-.993 7.964-1.987 11.946-4.125 2.845-1.855 5.69-3.711 8.534-6.715 1.706-1.574 3.413-3.15 4.55-4.582 1.138-2.007 2.276-3.44 3.414-5.449 2.275-4.018 3.413-7.177 3.982-10.767 3.982-1.586 7.395-4.178 10.809-6.772l.568-.145c2.845-2.452 5.12-5.912 7.396-8.799 4.55-6.932 6.826-15.019 6.257-22.95 3.414-2.041 6.258-5.669 9.102-9.3 2.845-3.634 3.983-7.401 5.12-10.592 1.138-2.035 1.707-3.92 1.707-5.657.569-1.886.569-4.201.569-5.937 0-4.051-.569-7.372-1.707-10.541 2.276-2.922 4.551-7.005 6.258-11.516.569-.732.569-1.89 1.138-2.623 0-1.159.568-1.891.568-3.05 0-1.738.57-3.63.57-5.369v-5.794c-.57-2.163-1.138-3.747-1.707-5.33-1.138-3.744-2.845-6.172-5.12-7.864 1.706-3.942 2.844-8.308 3.413-12.518 0-1.738 0-3.475-.569-5.054 0-1.738-.569-3.317-.569-5.054-.569-1.578-1.706-3.576-2.275-5.154-.569-1.577-1.707-2.994-2.845-3.833-2.275-2.253-5.12-4.344-7.964-5.277.57-3.626 0-7.509-.569-11.39v-.578c-.569-1.571-1.137-2.564-1.706-4.135-.57-.992-1.707-2.4-2.276-3.97-2.844-2.648-5.12-4.88-7.964-5.793-2.844-.912-6.258-1.658-9.67-1.827 0-1.726-.57-3.288-1.139-5.424-.569-1.561-1.137-3.122-2.275-4.517-1.707-2.379-3.413-4.756-6.258-6.226-2.275-1.633-5.12-2.524-9.102-3.08-2.844.258-6.257.11-10.24 1.276-1.137-3.1-2.844-6.03-5.688-8.052-2.276-2.758-4.551-3.8-7.396-4.1-2.844-.871-6.257-1.572-9.67-1.13-1.707.506-3.414.442-5.12.948-1.707.506-3.414 1.58-5.12 2.086-1.707-2.336-4.551-4.901-7.396-6.326-2.275-1.025-5.12-2.446-7.395-2.334-2.844-.284-5.689-.566-8.533.285l-4.551 1.362c-1.707.51-2.845.85-4.551 1.927-.569-1.526-1.138-2.486-2.276-3.84-.569-1.524-1.706-2.312-2.275-3.27-1.707-1.746-3.413-2.925-5.689-3.368-4.55-2.009-9.67-2.15-15.928-.257 0-2.812-.57-6.015-1.707-8.48-.569-2.076-1.707-3.978-2.844-5.317-2.845-3.063-6.827-4.65-12.516-5.709l.57-.175c.568-1.857 1.137-3.153 1.137-4.275.569-1.858.569-2.98 1.138-4.839 0-1.682.569-4.103 0-6.17-.57-4.311-2.276-8.267-5.689-12.246 1.138-.917 2.275-2.394 3.413-3.871 1.138-1.478 1.707-2.779 2.845-4.257 1.706-2.781 2.275-4.644 2.844-7.068 1.707-5.03 2.275-10.825 1.138-16.08 1.137-.923 2.844-2.027 3.982-3.513 1.706-1.106 2.844-2.03 4.55-3.699 2.276-2.413 3.983-4.646 5.12-6.698 3.414-5.598 5.69-11.399 6.258-17.781 3.414-1.102 6.827-2.767 9.102-4.631l.57-.184c2.275-1.865 4.55-4.295 6.257-5.978 5.12-5.053 7.964-10.504 10.24-17.474 3.413-.547 6.257-1.476 9.67-2.59 2.276-1.31 5.12-2.806 7.396-4.685 5.12-3.948 9.67-9.421 13.084-16.236 3.413.587 6.826.036 9.67-.899v.571c2.276-.747 4.552-1.495 7.396-3 6.258-3.2 11.378-8.318 15.36-13.64 2.275.968 5.12 1.176 8.533 1.773 1.138-.375 2.844-.362 3.982-.737 1.138.2 2.276-.174 3.982-.736 2.276-.749 5.12-1.685 8.533-3.96 2.276-1.324 5.12-3.413 7.965-6.657 1.706 2.32 4.55 3.114 7.395 4.487 2.275.406 4.551.814 6.826.645 2.845-.355 5.69-.71 8.534-2.222 2.844-.933 6.257-2.632 9.102-4.726 1.137 2.526 2.844 4.868 5.688 6.258 2.276 1.579 4.551 2.578 6.258 2.603 1.138.791 2.844.816 3.982.446 1.707.026 2.844.237 3.982-.134 1.138.212 1.707.027 2.276-.158l2.275-.74c1.138-.371 2.276-1.324 3.413-1.695l.57-.185c0 1.749 0 2.914.568 4.478 0 1.166.57 2.73 1.138 3.712.569 2.148 2.275 3.345 3.413 4.728 1.138 1.383 2.845 3.167 5.689 3.419 1.707 1.203 3.982 1.64 7.395 1.712-.569 1.937-1.137 3.288-1.137 5.042-.57 1.936-.57 3.106-.57 4.86V4.892c.57.403.57.988.57.988 0 1.169.568 2.157 1.137 3.146v.585c.57.989.57 1.573 1.707 2.382v.585c1.138 1.395 2.844 3.195 4.551 4.412l-1.138 1.53c-.569.765-1.706 1.709-2.275 2.473-.57 1.35-.57 1.935-1.138 2.7-.569.178-.569.763-1.138 1.527-1.138 2.112-1.706 3.46-2.275 5.393l-.57.763c0 1.17-.568 1.932-.568 3.101v.584c-.569 1.347-.569 2.516-.569 3.685v3.506c0 1.17.569 2.16.569 2.745v1.17c-3.413 1.645-5.689 2.937-8.533 4.989-.569.177-1.707 1.114-2.276 1.874l-.569.176c-.568.76-1.706 1.696-2.275 3.039l-1.138.936-1.706 2.277c-1.138.935-1.707 2.276-2.845 3.793-1.138 2.68-2.844 6.118-3.413 8.622-2.844.294-6.258.763-9.67 1.815-1.139.35-2.276.7-3.414 1.632-1.138.35-2.276.7-3.413 1.63-2.845 2.036-5.12 3.316-7.965 5.929a51.793 51.793 0 0 0-6.257 8.289c-2.845-1.444-6.258-1.554-8.533-1.434-2.276-.458-5.12.415-7.396 1.114-5.12 1.571-10.24 4.871-15.36 9.319l-.568.174c-.57-.977-1.707-1.779-2.276-2.755-1.138-.226-1.706-1.201-2.275-1.602-.57.175-.57-.4-1.138-.225-1.138-.8-1.707-1.2-2.844-1.424 0 0-.57.175-.57-.4-.568.175-1.706-.049-2.275.126v-.574c-2.275.127-3.982.08-6.257.78-2.276.129-3.983 1.228-6.258 1.93l-1.138.35v-2.291c-.569-.397-.569-.97-.569-1.543V88.132c0-.572 0-1.145-.569-1.541 0-.573 0-1.146-.568-.97v-1.144c-.57-.396-.57-.969-1.138-1.364 0 0 0-.573-.569-.396 0-1.145-1.138-1.363-1.707-2.33 0 0-.569.177-.569-.396l-.568-.394-1.138-.79-1.707-1.183c-.569-.394-1.138-.216-1.138-.788 1.138-1.5 2.276-3.57 3.414-5.07.569-1.323 1.706-3.397 1.706-3.397.57-1.323 1.138-2.646 1.138-3.79.569-.752.569-1.324.569-1.324.569-1.324.569-1.897.569-3.042.569-1.324.569-1.897.569-2.47v-2.29c.569-1.897.569-3.615.569-5.333 0-1.717-1.138-3.074-3.414-2.924-1.137.362-2.275.723-2.844 1.476-1.138.933-1.138 2.077-1.138 2.648-.569 1.896-.569 3.611-.569 4.755v.572c0 1.715-.569 3.61-1.137 4.932v.572c-.57 2.466-1.138 4.93-2.845 7.753-1.138 2.642-2.844 4.89-4.55 7.137l-.57.749c0-1.142-.569-2.105-.569-3.817v-5.708c0-1.141-.568-2.104 0-3.424 0-1.142 0-2.283.57-3.604 0-2.284 1.137-4.927 2.275-6.43 1.138-2.073.569-4.177-.569-4.958-1.138-.21-2.276-.418-3.413-.056-1.138.362-2.276 1.294-2.845 2.615-.569 1.322-1.137 2.643-2.275 4.144 0 1.71-.569 3.03-1.138 4.92-.569 1.89-.569 3.6-.569 5.31V75.9c.57 2.101.57 3.81.57 5.52 0 4.56-1.708 9.65-3.983 16.053-1.138-1.356-2.844-3.103-3.982-5.026-.569-.961-.569-2.669-1.138-3.63v-.568c-.569-.392-.569-.96-.569-1.53v-2.276c-.569-5.51.57-12.695 2.845-18.535 1.706-2.817.568-5.303-1.138-5.9-1.138-.21-1.707-.029-2.845.9-1.137.362-2.275 1.86-2.844 3.177l-1.707 3.95c0 1.137-.568 2.453-.568 3.59l-.57.747c0 1.704-.568 3.02-.568 4.724l-.569 2.452v9.657c1.138 8.736 5.12 15.46 11.377 18.082-.568 4.16 0 8.54 2.276 13.537 2.275 3.863 4.551 6.02 6.826 7.61 3.983 2.785 7.965 3.292 11.947 3.801 1.706.056 3.982-.632 5.689-1.147 1.137.228 1.706.056 2.844-.287 1.138-.344 1.707-1.089 2.844-1.432 1.138 1.374 2.276 2.75 3.982 3.955 1.707.632 3.414 1.265 5.12 1.9 1.138.805 2.845.866 4.551 1.502 1.707.062 3.414.125 5.69-.557 7.963-.662 15.928-4.777 21.616-10.522 1.707.642 3.414 1.284 5.12 1.349 1.707.066 3.413.132 5.689.028 1.707.066 3.413-.445 5.12-.956l5.12-1.535c3.982-1.772 7.395-3.956 10.808-7.301 3.414-3.349 6.258-5.948 7.965-9.368 3.982-.038 7.964-.656 11.946-2.439 1.707-.514 3.413-1.612 5.12-2.126 1.138-.926 2.844-2.025 4.55-3.707 1.707-1.099 3.414-2.782 5.12-4.466 1.707-1.685 2.845-3.783 4.552-5.47 2.844-4.371 4.55-7.815 5.688-11.672 3.983-1.215 8.534-4.362 11.947-7.75 2.844-2.043 5.12-5.674 7.964-10.07 1.707-1.699 2.276-4.224 3.413-6.337l.57-.763c.568-1.939 1.706-4.641 1.706-6.405.569-2.528 1.138-5.056 1.138-6.82 0-2.352-.57-3.94-.57-5.703 1.707-2.296 3.414-4.005 4.552-6.125 1.137-2.121 2.275-4.243 3.413-6.954l1.707-5.836c.568-2.535.568-4.302.568-6.658.57-9.016-2.275-16.357-7.964-19.838.57-1.359.57-2.535 1.138-3.306 0-1.176 0-2.353.569-3.712v-6.472c-.569-3.935-1.707-7.097-2.845-9.67-1.706-2.975-3.982-5.762-6.826-7.774-3.413-1.824-6.827-2.47-9.67-2.715 0-4.104-1.708-7.649-3.414-11.19-1.138-1.384-2.276-2.18-3.413-3.563l-3.983-2.783c-1.706-.606-3.982-1.608-5.688-1.628-1.138-.208-1.707-.604-2.276-.415l-.569.188c-1.137-.207-1.706-.019-2.844-.226-1.707.566-3.413.548-5.12 1.114l-5.12 1.698c-1.706-2.93-3.982-5.087-6.826-7.051-2.276-.987-5.12-1.783-8.533-2.387-3.414-.021-6.827.54-10.809 1.292-3.982 1.332-7.395 3.054-10.24 5.164-2.275-2.133-5.689-3.304-9.102-3.894-2.844-.779-5.689-.978-9.102-.408-3.413.571-6.826 2.296-11.377 4.402-3.414 2.298-6.827 4.596-9.671 7.275-2.845-1.344-6.258-1.92-10.24-1.73-2.844.384-6.258 1.532-9.67 2.68-7.396 3.06-14.223 8.785-19.343 15.64-2.844-.759-6.826.006-10.808.77l-.569.191c-2.844.954-6.258 2.668-9.102 4.758-7.395 4.749-13.084 11.19-16.497 18.564-3.983.191-7.965 1.516-11.378 3.783l-.569.19c-2.844 1.51-6.257 3.775-9.102 6.414-6.257 5.46-10.808 13.166-13.084 20.113-3.413 1.123-7.395 3.557-11.377 6.553-3.414 2.806-5.69 5.236-7.965 8.227-5.688 6.907-9.102 14.744-9.102 22.027-3.982 1.849-7.395 5.191-10.24 8.347l-.568.184c-2.276 3.528-4.551 6.496-6.258 9.837-3.982 7.976-5.12 16.15-3.413 22.303-3.413 3.871-6.258 7.56-7.964 12-1.138 1.472-1.707 3.323-2.276 5.173-.569 1.85-1.138 3.699-1.138 5.926-1.137 8.151 1.138 15.795 5.69 19.956-1.139 2.024-1.708 4.43-2.276 6.276-.57 1.847-.57 4.076-.57 6.304v.558c0 1.67 0 3.342.57 4.84 0 1.671.568 3.726 1.137 5.224 2.845 6.381 8.533 10.794 15.36 11.523 0 3.912 1.138 7.483 2.844 10.884v.56c2.276 2.675 3.982 4.962 6.258 5.963 5.12 4.077 12.515 5.246 19.91 3.053 1.138 2.473 2.845 5.904 6.258 7.71 2.276 2.143 4.551 3.726 7.396 4.017 1.706.627 3.413.69 5.12.753 1.706.064 3.413.128 5.12-.372 3.413-.435 6.826-1.435 10.24-3.566 1.137 1.364 2.275 2.729 3.412 3.528 1.138 1.366 2.276 2.166 3.414 2.967 1.706 1.202 3.982 2.24 6.826 2.546 1.138.237 2.276.474 3.982.545 1.707-.495 2.845-.258 4.551-.753 2.845-.257 5.689-1.083 9.102-2.642.57 1.542 1.138 2.515 1.707 3.489l.569.404c.569.974 1.137 2.517 2.275 3.328 1.707 1.785 3.413 3.003 5.689 4.058.569-.164 1.138.243 1.707.08l.568.406c.57.407 1.138.243 1.707.65 1.138.244 2.276.488 3.982.57 2.276-.082 5.689-.49 8.533-1.305.57 3.268 1.707 6.374 2.845 8.91.569.982 1.137 1.965 1.706 2.375.57.41 1.138.821 1.138 1.394.569.41 1.138.821 1.138 1.394 2.275 1.645 3.982 2.88 6.826 3.222 2.845.917 5.12 1.422 7.965 1.193-.57 3.604 0 6.888 0 9.759.568 2.71 1.137 4.848 2.275 6.253 1.707 2.971 2.844 4.378 4.551 6.203 1.138.259 1.707.676 2.844 1.51l.57.418c1.137.26 2.275 1.095 3.413 1.356-1.138 2.04-1.707 3.348-1.707 5.074-.569.733-.569 1.883-.569 3.034-.569.731-.569 1.307-.569 1.882-.569 2.457-.569 4.757 0 7.477v1.726c0 .575.57.995.57 2.145.568.996.568 2.146 1.137 3.142.569.996 1.706 2.413 2.275 3.41.57.997 1.707 1.84 2.276 2.837-1.138 1.46-1.707 2.765-2.845 4.224-.568 1.305-1.137 2.034-1.706 3.338 0 .575-.569.729-.569 1.304-1.138 2.608-2.276 5.214-2.276 7.514-.568 3.028-1.137 6.055-.568 8.778.568 2.724.568 5.024 1.706 7.598-1.138 1.451-2.844 2.479-3.982 3.93-.569.725-1.138.875-1.707 1.6v.575c-.568.15-1.137.875-1.706 1.6-1.707 2.173-3.413 4.92-4.551 6.94-2.845 5.338-3.982 10.798-3.413 17.532l-5.12 3.05c-.57.148-1.138.869-1.707 1.016-1.138.868-1.707 1.016-2.275 1.736-2.276 1.735-4.551 3.469-6.258 5.627-2.276 2.875-3.982 5.602-5.12 8.18-.569 1.29-1.138 3.15-1.707 4.438-.568 1.86-.568 3.002-1.137 4.86-3.414.303-6.258 1.03-9.671 3.044-2.276.582-5.12 2.448-6.827 4.023-1.137.86-1.706 1.574-2.844 2.433 0 0-.569.714-1.138.859-1.138 1.427-2.275 2.286-2.844 3.568-2.276 2.852-3.413 5.414-5.12 8.687-3.413-.273-6.827.024-9.67.744l-3.983 1.008c-1.138.288-2.276 1.143-3.982 1.575-2.276 1.142-5.12 2.993-7.396 5.264-2.844 2.414-5.12 5.247-6.826 7.37-1.707-.135-3.413-.27-4.551-.548-.569-.42-1.707-.134-2.276-.555-.568.143-1.706-.134-2.275.01-2.844.154-5.12.164-7.964.882-1.707.43-2.845 1.28-4.551 1.71-1.138.85-2.845 1.28-3.982 2.128-2.845 1.84-5.69 4.24-7.965 6.496-2.275-1.111-5.12-2.639-8.533-3.46-2.275-.546-4.55-.532-7.395-.373-3.413.862-6.258 1.58-9.102 2.857-2.845.718-5.689 2.552-8.533 4.942-2.845-2.627-5.12-4.28-7.396-4.818-2.275-1.094-4.55-1.63-7.395-1.464-.569-.412-1.707-.123-2.276.022l-.568.144c-.57-.411-1.138-.267-1.707-.122l-3.982 1.012c-2.276.578-5.12 1.855-8.533 3.276-.57-.964-1.707-2.337-2.276-3.3-.569-.964-1.706-2.335-2.275-2.744v-.554l-.57.146c-.568-.409-1.137-1.37-2.275-1.633-.569-.962-1.706-1.224-2.275-1.631-4.551-1.598-9.102-2.087-15.36-.478 0-1.655 0-3.31-.569-4.818 0-1.103-.569-2.61-.569-3.714-1.137-2.462-1.706-3.968-2.844-5.327-2.844-3.117-6.258-5.53-11.946-7.344 1.137-3.048 2.275-6.097 2.844-8.998v-6.602l-.569.15c-.569-4.8-2.844-9.144-6.826-12.478 2.275-3.357 3.982-6.013 5.688-9.222.57-2.353 1.707-4.86 2.276-7.215.569-5.657 0-11.006-2.276-15.886 2.845-1.879 5.12-4.703 7.396-7.53 1.706-2.122 2.844-4.639 4.55-7.314 2.276-5.04 3.414-10.87 2.845-16.78 2.845-1.345 5.689-3.242 8.533-5.693 2.276-1.741 3.982-3.324 5.69-6.014 3.981-4.437 6.257-9.506 7.394-15.92 3.414-.41 6.827-1.376 9.102-2.574 1.707-.482 2.845-1.36 3.414-1.52 1.706-1.039 2.275-1.2 3.413-2.077 4.551-3.513 8.533-7.425 11.946-13.406 1.138.233 2.276 1.023 3.982 1.094 1.138.234 2.845.306 3.983.54 2.844-.251 4.55-.178 6.826-.824l.569-.162c4.551-1.293 9.67-3.866 14.222-7.96 2.275 2.153 3.982 3.91 6.257 4.945v.56c1.707 1.2 3.983 1.677 5.69 2.317 2.275-.082 5.12.238 7.963-.566 1.707.08 2.845-.24 3.983-.562l.568-.16c1.138-.322 1.707-1.045 2.276-1.206 0-.562 0-.562.569-.723.569 3.217 1.138 5.871 2.844 8.207 1.138 1.933 2.845 3.709 4.551 4.922 3.982 3.399 8.533 4.952 14.791 4.342 0 3.39 0 6.782.569 9.45 0 1.131 0 2.262.569 3.236.569.973 1.137 1.948 1.137 2.513 2.276 3.9 5.12 5.95 10.24 7.947-1.138 1.444-1.706 2.732-2.844 4.174 0 .566-.569.721-.569 1.288-.569.72-1.138 1.441-1.138 2.007-.569.155-.569.155-.569.721-.569.72-.569.72-.569 1.287l-.568.72c0 .566-.57 1.286-.57 1.852-.568 2.983-.568 6.377 0 11.882-3.413 1.483-6.257 2.813-8.532 3.99-.57.152-.57.717-1.138.87-.569.153-1.138.87-1.707 1.023-1.138.87-1.706 1.022-2.275 1.74l-.57.716c-3.412 3.171-6.257 6.75-9.101 13.144-1.138-.26-2.845-.369-3.982-.629l-3.414-.778-.568.152c-2.276.044-3.983-.062-6.258.545-4.551 1.215-9.67 4.264-15.36 8.582-1.137-1.377-2.275-2.754-3.413-3.57l-1.707-1.224-1.137-.255c-3.982-2.29-9.671-3-16.498-2.283-1.137-.252-1.706.459-2.275 1.17-.569.152-1.138.862-1.707 1.572 0 .558 0 .558-.569.71-.569 1.267-.569 2.382 0 3.344 0 .558 1.138.81 2.276 1.064 7.395-.86 12.515.567 15.928 2.454v.559c2.276 1.073 3.414 2.45 5.12 4.796v.56c-2.844.193-5.689.387-9.102.732-5.689.949-9.67.331-12.515-1.702-1.707-1.218-3.982-.612-5.12.805-1.138.86-1.707 2.124-1.707 3.238 0 1.113 0 2.227 1.138 3.039 3.982 2.847 10.24 3.426 17.635 2.593 3.414-.899 6.258-1.089 8.533-.569 4.551-.077 9.102 1.53 12.516 4.56-3.982 2.724-9.671 4.771-14.791 4.99-5.689.928-11.378-.375-15.929-2.528-1.706-.667-4.55.08-6.257 2.2-.569.707-.569 1.821-.569 2.935s.569 2.08 1.707 2.339c3.982 1.746 9.102 3.2 14.221 3.543 2.845-.181 4.551-.066 6.827-.657 7.395-.242 15.928-3.58 21.617-8.99 3.982 1.21 7.964 1.862 12.515 1.242l3.414-.887 2.275-.59c2.276-.592 3.982-1.6 5.689-2.607 7.964-4.33 15.36-11.915 18.773-19.602 2.275-.598 3.982-1.613 6.257-2.778 2.276-1.165 4.551-2.331 5.69-3.766l.568-.15c1.138-.867 2.844-2.452 4.551-4.038 1.138-1.437 2.844-3.024 3.982-5.03 1.138-1.438 2.845-4.165 3.982-6.743 1.138-2.009 1.707-3.867 2.845-7.016.569-1.86.569-4.137 1.137-6.566 0-1.708 0-3.985-.568-6.11 1.706-2.167 3.413-4.336 4.55-6.922 1.138-2.586 2.276-5.174 2.845-7.608 1.138-4.3 1.707-9.017 1.138-12.852-1.707-8.082-6.258-14.801-13.084-16.892 1.137-4.298.568-8.122-.57-11.785-1.137-3.093-2.275-6.185-4.55-8.386-4.551-4.395-10.809-7.163-17.635-6.36-.57-3.802-1.707-7.442-3.414-9.785v-.566c-1.706-1.775-3.982-3.951-6.257-5.56l-1.707-.64c-.569-.401-1.138-.238-1.707-.64-.568-.4-1.137-.801-1.706-.638l-.569.164c-.569-.4-1.138-.237-1.138-.802-2.275.092-3.982.02-5.689-.053-3.982.585-7.395 1.57-10.808 3.118-1.138-1.923-2.276-2.72-3.413-4.078-1.138-.795-2.845-1.988-4.551-2.617-3.414-1.256-6.258-1.553-9.671-1.121-7.396-.09-15.929 3.514-22.186 8.688-1.707-.621-3.414-1.242-5.12-1.304-1.707-.619-3.982-.514-6.258.149-1.707-.06-3.413.437-5.12.934-2.275.663-3.982 1.16-5.689 2.214-7.964 3.431-15.36 10.021-19.341 17.274-1.707-.061-3.982.597-6.258 1.255-1.707.493-3.413 1.54-6.258 2.915-3.413 2.092-6.826 4.182-9.102 7.046-6.826 5.826-11.377 13.743-12.515 21.226-3.982 1.684-7.395 4.305-10.808 7.474-1.707 1.583-2.845 3.004-3.983 4.425-1.137 1.42-2.275 2.84-3.413 4.808-4.55 7.316-6.826 15.08-5.689 21.339-3.413 2.594-6.257 6.123-9.102 10.196-1.706 2.661-3.413 5.868-4.55 9.462-2.845 7.887-2.276 15.38.568 20.619-2.844 3.504-5.12 7.398-6.257 11.528-1.138 3.037-2.276 6.618-2.276 9.893zm10.239-11.494c1.707-2.649 3.413-5.299 5.689-7.556 5.688-5.378 11.377-10.763 17.066-15.058 1.707 3.38 1.707 7.227 1.138 11.227-.57 2.901-1.707 5.405-2.845 7.909-1.137 2.502-2.844 4.607-5.12 6.864-5.12 5.757-9.67 11.901-14.221 18.037-4.551-4.805-5.12-13.398-1.707-21.423zm2.275 37.686c.57-2.885 1.707-5.92 3.414-8.56 3.982-7.077 7.964-12.518 12.515-18.118 2.844 1.988 4.551 5.379 5.12 8.524v3.846c0 1.098 0 2.747-.569 3.995-.569 2.896-1.138 5.242-2.844 7.886-3.414 6.38-5.69 13.005-7.396 20.027-6.826-2.07-11.377-9.643-9.67-17.749zm2.845-54.395c-2.845-6.338-.569-15.72 5.12-22.22 1.706-2.664 4.55-5.097 6.826-6.826 6.827-4.092 13.084-7.482 19.342-10.324.569 3.697 0 7.71-2.276 12.194-1.137 2.516-2.844 5.188-4.55 7.308-1.707 2.119-3.983 3.843-6.827 5.723-5.689 4.304-11.946 8.758-17.635 14.145zm14.222 76.82c1.137-6.882 3.413-14.061 5.688-20.148 3.983 1.163 6.827 3.174 8.534 5.483 1.137 1.357 2.275 3.265 2.844 5.872v.55c.569 1.507.569 4.26.569 7.015-1.138 6.9-.569 13.364.569 19.685-7.965.912-15.36-3.26-17.635-10.369-1.138-2.454-1.138-5.198-.57-8.089zm0-115.28c-.57-7.526 3.982-16.495 11.377-21.883 2.845-2.455 5.12-3.65 7.964-5.007l5.12-1.45c5.12-1.452 10.24-2.35 14.791-3.086-.569 4.033-2.844 7.992-5.12 11.396-2.275 2.85-4.55 4.593-6.826 6.335-2.276 1.741-4.551 2.93-7.396 4.278-6.257 2.302-13.084 5.312-19.91 9.417zm24.461-36.062c2.276-7.822 9.102-16.405 17.635-19.412 2.845-1.372 5.69-2.19 8.534-1.9 6.257.421 12.515 1.403 17.635 3.273-2.276 3.986-5.12 7.02-8.533 9.658-1.138.879-2.276 1.203-3.983 2.243-1.137.323-2.275 1.201-3.413 1.525-2.275.646-5.12.9-7.964 1.156-5.689.512-12.515 1.35-19.91 3.457zm.57 152.079c1.706-.436 3.412-.32 5.688-.35.569-.145 1.707.117 2.275.524 1.138-.29 1.707.117 2.845.38 1.138.815 1.706 1.223 2.844 2.04.57.407 1.707 1.225 2.276 2.187 1.706 1.227 2.275 3.296 3.413 5.776 2.275 5.518 4.551 11.041 7.964 16.286-7.964 4.2-16.497 3.006-21.617-1.792-1.707-1.78-2.844-4.254-3.982-6.175-1.138-6.885-2.276-13.215-2.276-18.73zm27.874 9.51c1.707-.985 3.982-1.56 5.689-1.99l.569-.145c1.706-.43 3.413-.862 5.688-.88 2.845-.163 5.12.932 7.396 2.029 2.275 1.097 3.982 2.34 5.12 4.84 3.413 3.604 6.826 7.772 11.377 13.34-7.395 5.176-15.928 6.17-21.617 2.57-2.276-1.103-3.982-2.346-5.689-4.699v-.555c-1.706-1.796-3.413-4.145-4.55-6.635-1.707-2.901-2.845-5.388-3.983-7.875zm5.12-190.578c5.12-7.589 14.79-13.174 22.755-13.255 2.844.29 5.12.748 7.395 2.323 5.12 2.99 9.102 6.877 12.516 11.492-3.983 3.376-7.396 4.91-11.378 6.048-2.275.65-4.55.741-6.826.276l-.57.163c-1.706-.627-3.981-1.09-6.257-2.11-5.12-2.984-11.377-4.52-17.635-4.937zm24.462-138.67c0-2.23.568-4.082 1.137-5.377.57-1.852 1.707-3.326 2.276-4.622v-.558c1.138-1.475 2.275-2.95 3.413-3.868.569-1.296 2.276-2.953 3.413-3.872 2.845-2.577 6.258-4.776 9.102-6.797 2.845-2.022 6.258-4.226 9.102-6.25 1.707 6.187 0 12.895-4.55 19.372-1.707 2.216-3.414 4.432-5.69 6.825-6.257 5.873-11.377 11.941-15.359 18.205-1.138-1.878-2.276-3.755-2.844-5.808 0-2.23-.57-4.841 0-7.25zm2.844 29.797c.569-2.965 1.707-6.106 3.413-8.867 3.982-6.818 8.533-13.264 13.653-18.775 3.982 4.36 5.12 10.17 3.413 16.86-.568 2.416-1.137 4.831-2.844 7.595-2.844 6.47-5.689 14.052-6.826 20.55-2.276.131-3.983-1.026-5.69-2.182-1.137-1.33-2.844-3.042-3.981-5.485-1.138-3-1.138-6.348-1.138-9.696zm1.138 299.907c3.413-2.53 7.395-4.09 11.946-4.673 2.844-.155 5.689-.309 7.964.8 2.276.552 3.982 1.806 6.258 3.48 3.982 4.058 9.102 7.842 13.653 11.213-6.827 6.178-15.36 8.277-22.186 6.597-2.276-1.118-4.551-2.235-6.258-4.05l-2.844-3.208-3.413-3.063-5.12-7.096zm6.826-357.122c-.569-4.848.57-9.682 2.845-14.882 1.706-2.785 3.982-6.313 6.826-8.908 2.276-2.413 5.12-4.45 7.964-5.368 6.827-3.324 13.653-6.09 19.911-8.11-1.138 7.12-4.551 14.403-10.809 19.778-1.706 1.668-3.982 2.957-7.395 5.169-6.258 3.118-13.084 7.534-19.342 12.321zm4.551 150.683c6.827-5.335 16.498-7.016 22.755-3.212 2.276 1.59 3.982 3.347 5.12 5.269 2.276 5.533 4.551 11.072 5.689 17.502l-5.689 1.614c-1.138-.239-2.275.084-3.413-.155-.569.162-1.707-.077-2.276.085-2.844-.876-5.12-1.351-6.826-2.548v-.561c-1.707-1.196-2.845-2.553-3.982-5.03-3.414-5.185-7.396-9.638-11.378-12.964zm5.12-71.462c.569-3.531 1.138-7.063 2.276-10.77.568-1.293 1.137-3.147 1.706-5.001 0-1.12.57-2.975 1.707-5.005 6.257 1.452 9.67 4.9 11.377 11.12.57 1.513 1.138 4.15.57 7.13 0 6.74 0 12.92 1.137 19.883-1.707-.053-3.982.064-6.258-.38-2.275.12-3.982-1.053-6.257-2.054-2.276-1.56-3.982-3.85-5.12-6.867-1.138-2.457-1.138-5.256-1.138-8.056zm7.964 196.635c5.69-4.314 11.947-6.537 18.204-5.948 2.845.371 4.551 1.045 6.827 1.57 5.12 2.592 11.377 3.764 18.204 3.663-.569 1.845-2.276 3.424-3.982 5.566-1.138 1.428-3.414 3.152-5.12 4.728-4.551 2.317-9.102 4.07-13.084 3.983-1.138.298-2.845.181-4.551-.497-1.138-.265-2.276-.53-3.414-1.356-5.12-2.588-9.67-7.003-13.084-11.709zm3.982-315.276c0-2.244.57-4.112 1.707-6.727 1.138-2.616 2.844-4.857 4.551-7.098 1.707-2.805 4.551-5.422 7.964-7.664 2.845-1.494 5.69-2.988 8.533-3.357 6.827-1.671 13.653-2.776 19.342-2.94-2.275 7.527-7.395 13.712-14.222 17.621-2.275 1.866-5.12 2.788-7.964 3.71-6.826 1.651-13.653 3.865-19.91 6.455zm6.258 391.773c2.844-2.96 6.258-4.94 11.378-6.786 2.844-.713 5.12-.72 7.964-.306 2.844.416 5.12.976 6.826 1.678 2.845 1.549 5.69 3.1 7.965 4.23l4.55 1.697 3.983 1.844c-2.276 3.393-5.689 5.934-9.671 8.047-1.707.985-3.982 1.546-5.689 1.967l-2.844.7c-1.138-.283-2.276-.002-2.845-.426-2.844.137-5.688-.851-7.395-2.12l-1.138-.281c-2.275-1.688-4.55-2.812-6.257-4.639-2.845-1.541-5.12-3.222-6.827-5.605zm7.395-274.125c6.827-1.493 13.085.006 16.498 4.624 1.706 1.182 2.275 3.27 3.413 6.318.569 2.09 1.707 5.705 2.844 8.757 1.138 2.488 2.276 5.543 3.414 8.033-5.12 2.638-9.671 2.85-13.653 1.767-2.276-.456-5.12-1.87-6.827-4.181-1.706-1.747-2.844-3.66-3.413-6.306l-1.707-9.619c-.569-2.642-.569-6.018-.569-9.393zm6.258 73.586c2.276-.653 3.982-1.143 5.689-1.07l.569-.163c1.706.075 3.413.15 5.688.626.57.401 1.707.64 1.707 1.205.569-.163 1.138.239 1.138.239 1.138.804 1.706 1.207 2.275 1.61 1.138 1.37 2.276 2.74 2.845 4.274 1.137 2.504 1.706 5.17 1.706 7.997 0 6.786-.569 13.732-1.137 20.11-4.551.142-7.965-1.161-10.809-3.186-1.707-1.777-2.844-3.713-3.982-5.648-1.138-2.498-1.707-4.592-1.707-7.41v-5.073c0-1.127-.569-2.092-.569-3.22 0-.563-.569-.964-.569-.964-.568-3.782-1.706-6.274-2.844-9.327zm7.395 113.496c2.276-3.989 4.551-7.417 7.396-9.87 1.138-1.432 2.275-2.301 3.413-2.605.569-.718 1.707-1.587 2.844-1.891l.57-.152c1.137-.87 2.275-1.174 3.413-2.045l3.982-1.065c2.844-.761 6.257-1.675 9.67-3.155 3.414-1.482 6.827-3.532 10.24-5.584v2.842c0 1.137-.569 2.426-.569 3.563-.568 1.856-1.706 4.433-2.844 7.008l-4.55 5.75c-1.708 1.587-3.414 3.174-5.69 4.343-2.275 1.735-5.688 3.204-8.533 3.39-7.395 1.388-13.653.785-19.342-.529zm1.138-338.772c1.707-4.511 5.12-9.59 9.102-13.165 2.845-2.637 5.689-4.71 8.533-5.652 2.845-1.509 5.69-1.885 8.533-1.693 6.258.198 12.516.402 18.773 1.18-3.982 7.566-10.24 13.028-17.635 16.02-2.275.746-5.12 1.112-7.395 1.292-3.982.175-6.827.543-9.671.346zm11.947 415.019 1.706-2.124.57-.143c.568-1.274 1.706-2.125 2.275-2.834 2.275-1.704 3.982-2.699 5.688-3.695 1.707-.996 2.845-1.282 4.551-1.712l3.982-1.002c2.276-.005 5.12-.153 7.396.41 0 0 .569.426 1.138.283l3.413.849 4.55.565c3.414.284 6.258.712 9.672.998-2.276 3.988-5.12 7.545-8.533 10.102-2.845 2.413-6.258 3.829-10.24 4.817l-1.138.282c-1.138.282-2.844.705-3.982.42-1.138-.285-2.276-.003-3.982-.714-3.413-.852-6.258-1.844-9.102-2.834-2.845-.989-5.12-2.118-7.964-3.668zm1.706-253.234c3.413-1.582 6.827-2.599 10.24-2.482 1.707.059 2.844.287 4.551.914 1.707.627 3.413 1.256 4.551 2.053 1.707 1.765 3.413 3.532 4.551 6.035 0 .569 0 1.137.569.969 1.138 2.506 1.706 5.18 2.844 7.12.57 3.243 1.707 6.322 2.276 8.999-3.414 1.564-7.396 2.157-11.947 1.783-2.275-.47-4.55-1.506-6.826-3.107-1.707-1.2-2.845-3.132-3.982-5.629-1.707-2.894-2.845-5.389-3.982-8.448-1.138-2.492-1.707-5.151-2.845-8.207zm4.551 109.024c-.569-2.107 0-4.529.57-7.517 1.137-6.546 2.275-13.66 2.275-21.022 7.395.18 13.653 5.23 14.79 12.862.57 3.249.57 6.088 0 9.086-2.275 7.443-5.12 14.47-8.533 19.945-3.413-1.331-5.689-3.538-7.395-6.466a12.333 12.333 0 0 1-1.707-6.322zm5.12 42.208c-.569-3.246-.569-6.645.569-9.786 0-1.133.569-1.854 1.138-3.142 0-.567.569-1.288 1.137-2.576l.57-.722c.568-1.288 1.137-2.01 1.706-3.3l2.844-3.61c3.982-5.063 7.396-12.247 10.24-19.85 3.413 1.902 5.689 4.69 6.827 8.93 1.137 4.243.568 8.953-1.138 13.402-1.138 3.723-3.413 7.183-5.689 8.936-5.689 5.512-11.946 9.468-18.204 11.718zm10.24-342.22c2.275-4.163 6.257-8.33 10.808-11.554 3.414-1.709 6.258-3.228 9.102-3.608l.57-.19c2.844-.379 5.688-.758 7.964.195 5.688 1.532 10.808 3.831 15.928 6.139-5.12 6.841-11.946 11.38-18.773 11.92-2.844.94-5.12.551-7.395.163-2.845-.767-6.258-1.345-9.102-1.54-2.845-.762-5.689-.955-9.102-1.525zm10.808 426.431c2.276-4.557 5.69-8.268 9.102-10.843 2.276-1.717 4.551-3.436 7.396-4.16 2.844-1.293 5.689-2.017 7.964-2.024 2.844-.152 6.258-.447 9.671-.742 3.413-.294 6.826-1.16 10.24-2.027-.57 2.439-1.138 4.303-2.276 6.31-.569.718-1.138 2.008-1.706 2.724l-2.276 2.866c-2.844 3.007-6.826 6.297-10.24 7.726-2.844 1.285-5.688 1.427-8.533 1.57-.569.143-1.138.286-1.706-.142-2.845.144-5.69.29-7.965-.278-3.413-.28-6.257-.703-9.102-1.123zm2.276-230.471c3.413-1.007 7.395-1.612 10.809-.908 2.275-.1 3.413.706 5.12 1.345 1.706.64 2.844 2.02 3.982 3.399 1.706 1.785 2.275 4.475 2.844 6.595l1.138 4.812c0 1.143.569 2.693.569 3.836v1.143c.568 3.266.568 6.696 1.137 9.39-2.275.656-3.982.576-6.257.661-1.707-.079-3.414-.728-5.12-.806v-.57c-2.276-1.054-4.551-2.106-5.689-4.057-1.138-1.95-2.275-3.898-3.413-6.415-1.138-6.502-3.413-12.098-5.12-18.425zm23.324-217.772c3.413-4.571 7.964-7.812 12.515-9.909 3.413-1.144 6.827-2.287 9.671-2.093 2.844.196 5.12 1.158 6.826 2.31 2.845 1.925 5.12 3.467 7.396 5.01 2.275 2.697 3.982 4.434 5.689 6.172-5.69 5.336-13.085 8.355-19.342 7.553-2.845-.206-4.551-.788-6.827-1.753-2.275-1.537-4.55-3.072-7.395-4.416-2.276-.959-5.12-1.727-8.533-2.874zm3.982 423.05c.569-4.149 2.844-8.165 5.689-11.759 2.275-2.304 3.982-4.463 6.826-6.343 2.276-1.161 4.551-2.897 7.396-3.632 3.413-.883 6.826-2.34 10.24-3.799 3.413-1.459 6.257-2.77 9.67-4.231l.57-.724c0 4.61-1.139 8.937-3.414 12.402-1.138 2.02-2.276 4.039-3.982 5.628-.57.72-1.138 1.442-2.276 2.308-.569.721-1.706 1.587-2.275 2.308-2.845 1.876-5.689 3.177-8.533 3.903l-1.138.29-3.982 1.017-5.12 1.308c-3.413.298-6.827 1.17-9.671 1.325zm4.551-194.069c3.413-.42 7.395-.434 10.809.868 3.413 1.878 5.688 5.238 6.826 7.206 1.138 1.969 1.707 4.677 1.707 8.124 0 3.447-.57 7.056-.57 10.503 0 .574-.568 1.31-.568 2.46 0 2.297-.569 4.756-1.138 7.788-1.706-.09-3.982-.592-5.689-1.255-1.706-.089-2.844-1.486-4.55-2.72-.57-.41-.57-.984-1.138-1.395-.57-.41-.57-.984-1.138-.821-.569-.984-1.138-1.967-1.707-3.523-.569-2.128-1.137-4.828-1.137-7.118 0-3.436 0-6.871-.57-10.142-.568-3.27-.568-6.706-1.137-9.975zm3.982-85.94c6.258-2.494 11.946-2.518 16.497.683l.57-.174c1.706 1.203 2.844 2.58 4.55 4.36 2.845 4.888 7.396 8.689 11.947 13.075-2.276 1.839-4.551 3.1-6.258 4.19-2.844.858-5.12 1.543-7.395 1.654-1.707.514-3.414.454-5.12.394-1.138-.806-2.845-.865-3.982-1.67-2.845-1.435-4.551-3.213-5.689-5.162-1.138-2.52-2.844-5.44-3.413-8.706-.57-1.545-1.138-2.517-1.138-4.236-.569-1.544-.569-2.69-.569-4.408zm14.79 249.35c0-4.02.57-8.19 2.845-12.234 1.138-2.597 2.845-5.346 5.12-7.67 1.707-1.6 3.982-3.927 6.827-5.83 2.844-1.903 6.257-3.959 9.102-6.442 2.844-2.485 5.688-4.394 8.533-7.46 1.706 3.592 1.706 8.216.569 11.984-.57 1.884-1.707 3.916-2.276 5.799-.569 1.304-1.138 2.609-1.707 3.335-.568.727-1.706 1.602-2.275 2.906-2.276 2.326-4.551 4.651-7.395 5.97-2.845 1.895-6.258 3.936-9.671 5.4-3.414 1.465-6.258 2.78-9.671 4.242zm4.552-115.012v-4.024c0-1.15.569-2.46.569-4.185 1.137-3.197 1.706-6.809 2.275-10.421v-1.15c.57-1.313.57-3.039.57-4.19l.568-5.34c1.707.088 3.413.75 5.12 1.415 1.706.664 2.844 1.492 4.55 2.734 2.845 2.65 3.983 6.363 4.552 9.663 0 2.884 0 5.768-.569 8.812-1.138 3.78-2.276 6.982-3.982 10.918-1.138 3.199-2.276 6.397-3.982 9.752-3.414-1.354-6.258-3.438-7.965-6.412-1.137-2.557-1.706-4.697-1.706-7.572zm6.826-292.027c1.707-1.723 3.982-3.636 6.258-4.398 2.275-1.338 4.551-2.1 6.826-2.285 3.414-1.143 6.258-.94 9.102-.158v.578c2.276.396 3.983 2.14 5.69 3.885 2.275 2.715 3.412 5.231 5.12 7.56 1.137 2.52 2.843 4.852 3.981 7.374-3.413 2.284-6.826 3.988-10.24 4.534-2.844.36-5.688-.437-9.102-1.043-1.706-1.168-3.982-2.724-5.12-4.078-2.275-2.706-4.55-4.833-6.257-6.57-2.276-2.123-4.551-3.667-6.258-5.4zm2.845 360.723c.569-2.457 1.137-4.913 2.844-7.677l.569-.73c1.138-2.611 2.844-4.801 4.551-6.992 2.844-2.5 5.12-5.426 7.395-8.353 2.276-3.506 4.551-6.437 6.827-9.949 5.12 4.97 5.689 14.077 1.706 22.672-1.706 3.35-3.413 6.12-5.688 8.463-.57.152-1.138.304-1.138.882-1.138.882-2.276 1.763-3.413 3.222-1.138.881-2.845 2.49-3.982 3.37-2.845 2.489-6.258 5.126-9.102 7.035-1.138-3.153-1.707-7.032-.57-11.943zm.569-201.744c6.257-5.368 12.515-7.857 19.341-7.054 2.276-.116 4.551.347 6.827 1.968 2.844 1.45 5.689 2.324 7.964 3.372 2.276 1.049 5.12 1.927 8.533 3.216-2.844 3.76-7.395 7.453-12.515 10.154-3.413 1.028-6.827 2.056-9.102 1.585-3.413-.128-5.689-.597-7.395-1.814l-7.396-5.262c-2.275-2.192-3.982-3.978-6.257-6.165zm.568 169.18c-.568-2.147 0-5.183.57-8.22 0-.576.568-1.31.568-1.885.57-.733.57-1.31.57-1.886l1.706-3.929c1.706-3.355 3.413-7.288 5.12-10.647 1.137-3.202 2.844-6.564 3.982-10.346 6.257 2.294 9.67 10.017 8.533 19.007-.569 3.048-1.707 6.252-3.413 9.033-.57 1.311-1.707 3.357-2.845 4.824-1.138 1.466-2.275 2.932-3.413 4.975l-6.827 8.783c-1.137-1.42-2.275-2.84-2.844-4.413-.569-.421-.569-1.574-1.138-2.57v-1.153c0-.576-.569-.996-.569-1.572zm32.995-180.574c1.707-1.68 2.845-3.187 3.982-4.695 1.138-1.508 2.845-2.61 4.551-3.713 2.276-1.858 5.69-3.485 9.671-4.706 1.138-.348 2.276-.115 3.413-.464 1.138.233 2.845-.29 3.983-.056 3.413.703 6.826.825 9.67.538 3.983-.05 6.827-.334 9.671-.618-.569 1.342-1.137 2.1-1.706 3.442-.57 1.341-1.138 2.098-2.276 3.612-1.706 2.854-3.982 4.712-5.689 6.396-1.706 1.1-3.413 2.2-4.55 2.546-1.707 1.1-3.414 1.616-5.12 2.133-2.845.862-5.69 1.142-8.534.841-5.688-1.178-11.377-2.93-17.066-5.256zm0-152.995c4.551-2.675 9.102-3.612 13.653-3.385 3.413.026 6.258.825 7.964 2.585 2.276 1.573 3.414 3.525 4.551 6.06 1.138 3.118 1.707 6.425 2.845 8.963.569 3.31 1.138 6.036 2.275 9.16-7.395 3-13.653 2.139-18.204-2.18-2.275-1.576-3.413-2.943-4.55-4.89-.57-3.295-2.276-5.633-3.414-8.737l-2.275-3.884zm31.288 131.79c1.707-4.605 3.414-7.463 5.69-9.915 1.706-2.862 4.55-4.909 7.963-7.133 1.138-.937 2.276-1.29 3.414-2.226 1.137-.353 2.844-1.467 3.982-1.82l5.12-1.586c1.137-.938 2.844-1.467 4.55-2.583 3.414-1.644 6.258-3.7 10.24-6.698.57 5.108-1.137 10.92-4.55 16.668-2.276 3.633-5.12 6.852-7.965 8.897-1.707 1.11-2.844 2.044-3.982 2.393-1.707 1.109-2.844 1.457-4.551 1.396l-5.12 1.57c-1.707-.061-2.844.288-4.55.227l-.57.175c-1.706.523-3.413.464-5.12.404-1.137.35-2.844.29-3.982.057zm3.982-127.206c2.276-1.335 3.983-1.315 6.258-1.482 1.138-.376 2.844-.355 3.982.439 1.138.21 2.276.419 3.413 1.213 1.138.21 2.276 1.59 3.414 2.387 1.137 1.381 1.706 2.365 2.844 3.748 1.138 2.554 1.138 5.482 1.138 8.41-.569 7.795-1.707 14.603-3.982 21.19-6.258-.319-10.24-3.704-12.516-9.972-.568-1.566-1.137-3.715-1.137-7.217 0-2.918-.57-6.233-1.138-9.548-.569-2.73-1.707-5.856-2.276-9.168zm19.342 93.116V34.91c0-.585.57-.763.57-1.348 0-1.171.568-3.105 1.706-4.633 0-1.757 1.137-3.285 2.275-4.815 0-.585.57-.764.57-1.35l.568-.18c0-.585.569-1.35 1.138-2.115.569-.766 1.706-2.296 2.844-3.242 5.12-5.723 9.671-11.86 13.653-19.588 1.707 1.22 2.844 3.212 3.413 5.384 1.138 1.992 1.138 4.933 1.138 7.874 0 1.765-.569 3.709-.569 5.474-.569 1.943-1.706 4.065-2.275 5.419-1.138 1.533-1.707 2.887-2.845 4.418-1.137 1.532-2.275 3.062-3.413 4.005l-.569.178c-2.844 2.65-5.689 5.298-9.102 7.535-1.138.941-2.844 1.473-4.55 2.59-1.707 1.118-2.845 2.057-4.552 2.589v-1.756zm1.707-44.444c0-2.342 1.138-5.049 2.275-8.343 2.276-7.177 4.551-14.945 5.12-21.578 1.138-.37 2.276-.153 3.413.063.57.989 1.707 1.206 2.276 2.196 1.138.218 1.707 1.207 2.844 2.013.57.403 1.138 1.394 1.707 2.384 1.138 2.57 2.275 5.728 2.275 9.254 0 2.938-1.137 6.828-2.275 9.541-1.707 3.482-3.413 6.962-5.689 11.208-2.275 3.07-3.982 6.544-6.257 9.024-4.551-3.828-6.258-9.14-5.69-15.762z" style="font-size:568.875px;line-height:0;font-family:'Desert Rope';-inkscape-font-specification:'Desert Rope';letter-spacing:0;fill:#502d16;stroke:#e9c6af;stroke-width:21.9921;stroke-dasharray:none;paint-order:stroke markers fill" aria-label="S" transform="matrix(.90765 0 0 .90765 23.641 74.16)"/></svg>