<?xml version="1.0" encoding="UTF-8" standalone="no"?>
<!-- Created with Inkscape (http://www.inkscape.org/) -->

<svg
   width="390.81323"
   height="512.83197"
   viewBox="0 0 390.81323 512.83197"
   version="1.1"
   id="svg1"
   xmlns="http://www.w3.org/2000/svg">
  <defs
     id="defs1" />
  <g
     id="layer1"
     transform="translate(-60.59338,0.41599917)">
    <path
       d="m 299.23484,102.25939 v 0.57201 c 0,3.43201 0,6.86402 0.56888,10.1222 0.56887,1.54253 0.56887,3.2589 1.13775,4.80197 0.56887,0.97119 0.56887,2.68793 1.13775,3.65954 l 0.56887,0.39949 -3.98212,1.20968 c -1.13775,0.34562 -2.2755,0.11954 -3.41325,-0.1063 -1.13775,-0.22559 -2.2755,-0.45095 -3.41325,-0.67606 -1.13775,-0.22488 -2.2755,-1.0205 -3.41325,-1.24476 -2.2755,-1.58906 -4.551,-3.74658 -5.68875,-7.39058 v 0 -0.57027 c -1.13775,-2.50192 -1.13775,-5.92274 -0.56888,-8.94876 0.56888,-1.88611 1.13775,-3.77258 1.70663,-5.65941 v -0.570382 c 0.56887,-1.887247 1.13775,-3.204365 2.2755,-4.698084 0.56887,-1.8884 1.70662,-3.383083 2.2755,-5.272318 l 1.70662,-2.243653 c 0,-0.571034 0.56888,-1.319224 1.13775,-2.067522 5.11988,2.978764 7.39538,6.27546 7.96425,11.819181 v 0.572007 0 c 0.56888,1.540541 0.56888,3.82879 0,6.292021 z M 51.774217,383.0576 c -0.568875,7.79306 2.2755,14.13403 6.8265,18.39319 -0.568875,1.78964 -1.13775,3.5789 -1.706625,5.36781 -0.568875,2.33485 -1.13775,4.66922 -1.13775,6.30794 v 0 c 0,3.27745 0.568875,6.40665 1.706625,9.9351 2.844375,6.36824 8.533125,10.91831 14.79075,12.59596 0,1.64395 0,3.28792 0.568875,5.33445 0.568875,2.047 1.13775,3.54632 1.706625,5.59422 v 0 c 1.13775,2.45222 3.41325,5.16591 6.257625,7.18984 5.119875,4.20011 12.51525,5.63981 19.910628,3.78292 1.70662,3.42973 3.98212,5.61715 6.8265,8.21688 v 0 c 2.84437,2.05134 5.68875,3.00103 8.53312,3.3999 3.41325,0.81204 6.8265,1.0729 10.80863,0.0869 3.41325,-0.84511 7.39537,-1.83107 10.80862,-3.786 2.2755,2.21185 5.11988,3.7303 7.96425,5.25115 v 0 c 3.41325,0.82721 6.25763,1.23999 9.102,1.09726 7.39538,-0.14528 14.22188,-2.9375 19.91063,-7.1293 2.84437,1.53615 6.25762,2.93511 9.67087,3.21727 v 0 c 1.70663,0.14163 2.84438,0.42295 4.551,0.56524 1.70663,0.14264 3.41325,-0.27504 5.11988,-0.69272 l 1.13775,-0.27845 c 2.84437,-0.69614 6.25762,-2.09314 9.102,-3.35154 1.70662,-0.98016 3.41325,-1.9607 5.11987,-3.50409 1.13775,-0.84178 2.84438,-1.82353 3.98213,-3.79168 3.41325,1.41377 6.8265,1.70315 10.80862,1.85457 v 0 c 1.70663,0.14601 3.41325,-0.27203 4.551,-0.55072 1.70663,-0.41805 3.41325,-0.83609 5.11988,-1.81921 3.98212,-1.54135 7.39537,-3.50988 10.23975,-5.90631 3.41325,-2.53819 6.25762,-5.50524 8.53312,-8.33427 1.70663,0.14596 3.41325,0.29227 5.11988,0.43896 l 6.25762,-1.54275 v 0 0 c 2.84438,-0.70125 6.25763,-2.68062 9.67088,-4.09214 2.84437,-1.84134 5.68875,-4.82368 9.102,-8.51971 2.84437,-2.98769 5.11987,-6.40702 6.25762,-9.54488 3.98213,-0.99355 7.96425,-1.98709 11.94638,-4.12501 v 0 c 2.84437,-1.85524 5.68875,-3.71169 8.53312,-6.71551 1.70663,-1.57415 3.41325,-3.14901 4.551,-4.5817 1.13775,-2.00687 2.2755,-3.44064 3.41325,-5.44882 2.2755,-4.01853 3.41325,-7.17746 3.98213,-10.7676 3.98212,-1.58559 7.39537,-4.17777 10.80862,-6.7721 l 0.56888,-0.14483 c 2.84437,-2.45169 5.11987,-5.91218 7.39537,-8.79874 4.551,-6.93254 6.8265,-15.0189 6.25763,-22.94993 3.41325,-2.04136 6.25762,-5.66912 9.102,-9.29991 v 0 c 2.84437,-3.63378 3.98212,-7.40166 5.11987,-10.59249 1.13775,-2.03478 1.70663,-3.92048 1.70663,-5.65652 0.56887,-1.88624 0.56887,-4.20121 0.56887,-5.93743 v 0 c 0,-4.05121 -0.56887,-7.37229 -1.70662,-10.54089 2.2755,-2.9222 4.551,-7.00441 6.25762,-11.51602 v 0 c 0.56888,-0.73206 0.56888,-1.89063 1.13775,-2.62291 0,-1.15869 0.56888,-1.89124 0.56888,-3.05005 0,-1.73821 0.56887,-3.6301 0.56887,-5.36849 v -5.79465 c -0.56887,-2.16317 -1.13775,-3.74651 -1.70662,-5.32949 -1.13775,-3.74404 -2.84438,-6.17252 -5.11988,-7.86438 1.70663,-3.9416 2.84438,-8.30768 3.41325,-12.5182 v 0 c 0,-1.73732 0,-3.47463 -0.56887,-5.05418 0,-1.73713 -0.56888,-3.31614 -0.56888,-5.05309 -0.56887,-1.57847 -1.70662,-3.57671 -2.2755,-5.1542 -0.56887,-1.57715 -1.70662,-2.99466 -2.84437,-3.833 -2.2755,-2.25346 -5.11988,-4.3445 -7.96425,-5.27735 0.56887,-3.62613 0,-7.50879 -0.56888,-11.39061 v 0 -0.57754 c -0.56887,-1.57101 -1.13775,-2.56423 -1.70662,-4.13456 -0.56888,-0.99268 -1.70663,-2.40015 -2.2755,-3.96928 -2.84438,-2.6489 -5.11988,-4.88075 -7.96425,-5.79427 -2.84438,-0.91172 -6.25763,-1.65802 -9.67088,-1.82691 0,-1.72576 -0.56887,-3.28743 -1.13775,-5.42387 -0.56887,-1.5609 -1.13775,-3.12142 -2.2755,-4.51673 v 0 c -1.70662,-2.37895 -3.41325,-4.7561 -6.25762,-6.22568 -2.2755,-1.63311 -5.11988,-2.52442 -9.102,-3.08131 -2.84438,0.25859 -6.25763,0.11161 -10.23975,1.27705 -1.13775,-3.09939 -2.84438,-6.03012 -5.68875,-8.05196 v 0 c -2.2755,-2.75798 -4.551,-3.79977 -7.39538,-4.10109 -2.84437,-0.87061 -6.25762,-1.57087 -9.67087,-1.12942 -1.70663,0.50579 -3.41325,0.44218 -5.11988,0.94815 -1.70662,0.50598 -3.41325,1.58082 -5.11987,2.08661 -1.70663,-2.33675 -4.551,-4.90152 -7.39538,-6.32686 v 0 c -2.2755,-1.025 -5.11987,-2.44607 -7.39537,-2.3335 -2.84438,-0.28374 -5.68875,-0.56628 -8.53313,0.28484 l -4.551,1.36179 c -1.70662,0.51066 -2.84437,0.85111 -4.551,1.92704 -0.56887,-1.52544 -1.13775,-2.48538 -2.2755,-3.83951 -0.56887,-1.52424 -1.70662,-2.31227 -2.2755,-3.27088 v 0 c -1.70662,-1.7452 -3.41325,-2.92454 -5.68875,-3.36695 -4.551,-2.00932 -9.67087,-2.15106 -15.9285,-0.25742 0,-2.81246 -0.56887,-6.01461 -1.70662,-8.48054 v 0 c -0.56888,-2.0759 -1.70663,-3.97772 -2.84438,-5.31657 -2.84437,-3.06309 -6.8265,-4.65017 -12.51525,-5.70864 l 0.56888,-0.1748 c 0.56887,-1.85722 1.13775,-3.15394 1.13775,-4.27567 0.56887,-1.858 0.56887,-2.97985 1.13775,-4.83834 v 0 c 0,-1.68296 0.56887,-4.10303 0,-6.17086 -0.56888,-4.31106 -2.2755,-8.26651 -5.68875,-12.24604 1.13775,-0.91623 2.2755,-2.39334 3.41325,-3.87093 1.13775,-1.47807 1.70662,-2.77821 2.84437,-4.25713 v 0 c 1.70663,-2.7805 2.2755,-4.64314 2.84438,-7.067488 1.70662,-5.029808 2.2755,-10.825381 1.13775,-16.079526 1.13775,-0.923337 2.84437,-2.027921 3.98212,-3.513695 1.70663,-1.10542 2.84438,-2.029971 4.551,-3.698426 v 0 c 2.2755,-2.413265 3.98213,-4.646267 5.11988,-6.698444 3.41325,-5.597597 5.68875,-11.398763 6.25762,-17.78102 3.41325,-1.101508 6.8265,-2.767315 9.102,-4.630972 l 0.56888,-0.183767 c 2.2755,-1.864741 4.551,-4.295526 6.25762,-5.978245 5.11988,-5.052498 7.96425,-10.504066 10.23975,-17.473973 3.41325,-0.547442 6.25763,-1.475599 9.67088,-2.589386 v 0 c 2.2755,-1.310133 5.11987,-2.806497 7.39537,-4.685803 5.11988,-3.9476156 9.67088,-9.4207299 13.08413,-16.2352782 3.41325,0.5868723 6.8265,0.035398 9.67087,-0.8990755 v 0.5705577 c 2.2755,-0.7473393 4.551,-1.4946786 7.39538,-3.0001945 6.25762,-3.1998475 11.3775,-8.3182505 15.35962,-13.6406415 2.2755,0.968427 5.11988,1.177353 8.53313,1.773975 v 0 c 1.13775,-0.374632 2.84437,-0.362411 3.98212,-0.736923 1.13775,0.199897 2.2755,-0.174494 3.98213,-0.736084 2.2755,-0.748784 5.11987,-1.684762 8.53312,-3.959164 2.2755,-1.32512 5.11988,-3.414314 7.96425,-6.657621 1.70663,2.319969 4.551,3.113599 7.39538,4.486271 v 0 c 2.2755,0.406897 4.551,0.814756 6.8265,0.645619 2.84437,-0.355309 5.68875,-0.71002 8.53312,-2.221852 2.84438,-0.933273 6.25763,-2.632724 9.102,-4.725948 1.13775,2.526065 2.84438,4.867099 5.68875,6.257649 v 0 c 2.2755,1.578708 4.551,2.578432 6.25763,2.602808 1.13775,0.7914 2.84437,0.816622 3.98212,0.445962 1.70663,0.0257 2.84438,0.236973 3.98213,-0.133447 1.13775,0.211634 1.70662,0.02649 2.2755,-0.158665 v 0 l 2.2755,-0.740599 c 1.13775,-0.370299 2.2755,-1.323253 3.41325,-1.693673 l 0.56887,-0.185208 c 0,1.748508 0,2.914179 0.56888,4.477957 0,1.165792 0.56887,2.730055 1.13775,3.711658 v 0 c 0.56887,2.148001 2.2755,3.345573 3.41325,4.727934 1.13775,1.383083 2.84437,3.167225 5.68875,3.418764 1.70662,1.202991 3.98212,1.639861 7.39537,1.71221 -0.56887,1.9368453 -1.13775,3.2886913 -1.13775,5.0426157 v 0 c -0.56887,1.9360028 -0.56887,3.1051654 -0.56887,4.85891127 v 0 1.16916255 2.33832508 1.7537387 c 0.56887,0.4034108 0.56887,0.9880471 0.56887,0.9880471 0,1.1692829 0.56888,2.157688 1.13775,3.1463369 v 0.584767 c 0.56888,0.9889467 0.56888,1.5737637 1.70663,2.3826177 v 0.584948 c 1.13775,1.394514 2.84437,3.195027 4.551,4.411562 -0.56888,0.765093 -0.56888,0.765093 -1.13775,1.530072 -0.56888,0.764853 -1.70663,1.709085 -2.2755,2.473633 -0.56888,1.349439 -0.56888,1.934446 -1.13775,2.698633 -0.56888,0.179193 -0.56888,0.76408 -1.13775,1.528026 v 0 c -1.13775,2.112252 -1.70663,3.460427 -2.2755,5.392933 l -0.56888,0.763117 c 0,1.169043 -0.56887,1.931905 -0.56887,3.100827 v 0.584466 c -0.56888,1.346971 -0.56888,2.515773 -0.56888,3.684574 v 1.753197 1.753207 c 0,1.168802 0.56888,2.160397 0.56888,2.744852 v 1.168922 c -3.41325,1.646251 -5.68875,2.937962 -8.53313,4.989599 v 0 c -0.56887,0.176782 -1.70662,1.113732 -2.2755,1.873769 l -0.56887,0.176662 c -0.56888,0.759867 -1.70663,1.696144 -2.2755,3.038718 l -1.13775,0.935746 c -0.56888,0.759195 -1.13775,1.518276 -1.70663,2.27723 -1.13775,0.934964 -1.70662,2.276153 -2.84437,3.792985 -1.13775,2.680938 -2.84438,6.118422 -3.41325,8.621974 -2.84438,0.293745 -6.25763,0.7633 -9.67088,1.814612 v 0 c -1.13775,0.350438 -2.2755,0.700875 -3.41325,1.631987 -1.13775,0.350317 -2.2755,0.700634 -3.41325,1.631254 -2.84437,2.035504 -5.11987,3.315187 -7.96425,5.928169 -2.2755,2.436628 -4.551,5.45079 -6.25762,8.288949 -2.84438,-1.443632 -6.25763,-1.554019 -8.53313,-1.434179 v 0 c -2.2755,-0.457334 -5.11987,0.415749 -7.39537,1.114216 -5.11988,1.571553 -10.23975,4.871212 -15.35963,9.318602 l -0.56887,0.17413 c -0.56888,-0.976606 -1.70663,-1.778599 -2.2755,-2.754609 -1.13775,-0.226074 -1.70663,-1.201539 -2.2755,-1.601819 -0.56888,0.174738 -0.56888,-0.400148 -1.13775,-0.225352 v 0 c -1.13775,-0.799826 -1.70663,-1.199562 -2.84438,-1.424131 0,0 -0.56887,0.175036 -0.56887,-0.399439 -0.56888,0.1751 -1.70663,-0.04899 -2.2755,0.12617 v -0.574235 c -2.2755,0.126892 -3.98213,0.07892 -6.25763,0.780274 -2.2755,0.128035 -3.98212,1.227372 -6.25762,1.928728 l -1.13775,0.350678 v -2.291138 c -0.56888,-0.397138 -0.56888,-0.969868 -0.56888,-1.542587 v -3.436346 0 -0.57273 -0.572719 c 0,-0.57273 0,-1.145449 -0.56887,-1.541758 0,-0.572659 0,-1.145328 -0.56888,-0.968784 v -0.572599 -0.572609 c -0.56887,-0.395877 -0.56887,-0.968426 -1.13775,-1.364119 0,0 0,-0.572489 -0.56887,-0.395587 0,-1.144847 -1.13775,-1.363096 -1.70663,-2.330496 0,0 -0.56887,0.177203 -0.56887,-0.394984 l -0.56888,-0.394851 c -0.56887,-0.394744 -0.56887,-0.394744 -1.13775,-0.789354 -0.56887,-0.394503 -1.13775,-0.788872 -1.70662,-1.183135 -0.56888,-0.394128 -1.13775,-0.216443 -1.13775,-0.78815 1.13775,-1.499136 2.2755,-3.570691 3.41325,-5.070911 0.56887,-1.322411 1.70662,-3.395721 1.70662,-3.395721 0.56888,-1.323077 1.13775,-2.646391 1.13775,-3.791118 0.56888,-0.75125 0.56888,-1.323678 0.56888,-1.323678 0.56887,-1.323916 0.56887,-1.896395 0.56887,-3.041362 0.56888,-1.324341 0.56888,-1.89689 0.56888,-2.469428 v -2.290176 c 0.56887,-1.897548 0.56887,-3.615355 0.56887,-5.333172 0,-1.717807 -1.13775,-3.074354 -3.41325,-2.924049 -1.13775,0.361391 -2.2755,0.722783 -2.84437,1.475414 -1.13775,0.933098 -1.13775,2.076741 -1.13775,2.648557 -0.56888,1.895686 -0.56888,3.610965 -0.56888,4.754488 V 56.6466 c 0,1.715279 -0.56887,3.610059 -1.13775,4.932834 V 62.1511 c -0.56887,2.465634 -1.13775,4.930789 -2.84437,7.752637 v 0 c -1.13775,2.642058 -2.84438,4.890227 -4.551,7.1373 l -0.56888,0.748792 c 0,-1.141597 -0.56887,-2.105027 -0.56887,-3.817247 V 72.260372 69.406676 68.2652 c 0,-1.141477 -0.56888,-2.103761 0,-3.42443 0,-1.141476 0,-2.282953 0.56887,-3.6041 0,-2.283194 1.13775,-4.926696 2.2755,-6.429082 1.13775,-2.074023 0.56888,-4.177967 -0.56887,-4.958533 -1.13775,-0.209232 -2.2755,-0.418212 -3.41325,-0.05634 -1.13775,0.361873 -2.2755,1.294118 -2.84438,2.615629 -0.56887,1.321268 -1.13775,2.642299 -2.2755,4.143481 0,1.710234 -0.56887,3.030478 -1.13775,4.920436 -0.56887,1.889604 -0.56887,3.599286 -0.56887,5.308978 v 5.698956 3.419374 c 0.56887,2.101416 0.56887,3.811278 0.56887,5.521151 0,4.559646 -1.70662,9.649822 -3.98212,16.052542 -1.13775,-1.355763 -2.84438,-3.103428 -3.98213,-5.026555 -0.56887,-0.961203 -0.56887,-2.668357 -1.13775,-3.629137 v -0.568997 c -0.56887,-0.391544 -0.56887,-0.960482 -0.56887,-1.529409 v -2.275731 c -0.56888,-5.510916 0.56887,-12.695647 2.84437,-18.535278 1.70663,-2.816675 0.56888,-5.303313 -1.13775,-5.900895 -1.13775,-0.208328 -1.70662,-0.02793 -2.84437,0.901672 -1.13775,0.360669 -2.2755,1.858481 -2.84438,3.17572 -0.56887,1.316994 -1.13775,2.633751 -1.70662,3.950264 0,1.136662 -0.56888,2.452817 -0.56888,3.589358 l -0.56887,0.747575 c 0,1.704637 -0.56888,3.020069 -0.56888,4.724515 l -0.56887,2.451188 v 1.704276 0.568085 7.385175 c 1.13775,8.736234 5.11987,15.460862 11.3775,18.081842 -0.56888,4.15991 0,8.5394 2.2755,13.53724 v 0 0 c 2.2755,3.86311 4.551,6.02002 6.8265,7.60908 3.98212,2.78549 7.96425,3.29248 11.94637,3.802 1.70663,0.0558 3.98213,-0.63184 5.68875,-1.14756 1.13775,0.22842 1.70663,0.0566 2.84438,-0.28713 v 0 c 1.13775,-0.34369 1.70662,-1.08814 2.84437,-1.43196 1.13775,1.37472 2.2755,2.75016 3.98213,3.95495 1.70662,0.63255 3.41325,1.26583 5.11987,1.89982 v 0 c 1.13775,0.80561 2.84438,0.86694 4.551,1.50281 1.70663,0.0622 3.41325,0.12483 5.68875,-0.55751 7.96425,-0.66134 15.9285,-4.77636 21.61725,-10.52161 1.70663,0.64146 3.41325,1.28364 5.11988,1.34895 1.70662,0.0657 3.41325,0.13169 5.68875,0.0276 v 0 c 1.70662,0.0668 3.41325,-0.44457 5.11987,-0.95596 l 5.11988,-1.53418 c 3.98212,-1.77296 7.39537,-3.95624 10.80862,-7.30182 3.41325,-3.34847 6.25763,-5.94737 7.96425,-9.36764 3.98213,-0.0379 7.96425,-0.65616 11.94638,-2.43869 v 0 c 1.70662,-0.51446 3.41325,-1.61182 5.11987,-2.12646 1.13775,-0.92629 2.84438,-2.02449 4.551,-3.706608 1.70663,-1.099109 3.41325,-2.782491 5.11988,-4.466598 1.70662,-1.684826 2.84437,-3.782442 4.551,-5.468776 2.84437,-4.371843 4.551,-7.815778 5.68875,-11.673221 3.98212,-1.214733 8.53312,-4.361253 11.94637,-7.749326 v 0 c 2.84438,-2.043271 5.11988,-5.674521 7.96425,-10.070138 1.70663,-1.699154 2.2755,-4.224132 3.41325,-6.337276 l 0.56888,-0.762996 c 0.56887,-1.938646 1.70662,-4.641252 1.70662,-6.404932 0.56888,-2.527749 1.13775,-5.055977 1.13775,-6.820008 0,-2.352047 -0.56887,-3.939066 -0.56887,-5.702916 1.70662,-2.296015 3.41325,-4.004799 4.551,-6.125105 1.13775,-2.121039 2.2755,-4.242789 3.41325,-6.954062 v 0 c 0.56887,-1.944855 1.13775,-3.890065 1.70662,-5.835643 0.56888,-2.534972 0.56888,-4.302072 0.56888,-6.6582123 0.56887,-9.01592517 -2.2755,-16.357074 -7.96425,-19.8384267 0.56887,-1.358285 0.56887,-2.534791 1.13775,-3.305125 0,-1.176626 0,-2.353252 0.56887,-3.712317 v -6.472104 0 c -0.56887,-3.935088 -1.70662,-7.097194 -2.84437,-9.669783 -1.70663,-2.974788 -3.98213,-5.762502 -6.8265,-7.774709 -3.41325,-1.823685 -6.8265,-2.470504 -9.67088,-2.7147 0,-4.104286 -1.70662,-7.648612 -3.41325,-11.190407 v 0 c -1.13775,-1.383384 -2.2755,-2.180322 -3.41325,-3.562382 -1.13775,-0.795854 -2.84437,-1.988734 -3.98212,-2.783384 -1.70663,-0.606069 -3.98213,-1.607959 -5.68875,-1.627704 -1.13775,-0.207782 -1.70663,-0.603781 -2.2755,-0.415323 l -0.56888,0.188461 c -1.13775,-0.20724 -1.70662,-0.01872 -2.84437,-0.225661 -1.70663,0.565743 -3.41325,0.547863 -5.11988,1.113786 l -5.11987,1.697763 c -1.70663,-2.93037 -3.98213,-5.086738 -6.8265,-7.051096 v 0 c -2.2755,-0.987385 -5.11988,-1.78336 -8.53313,-2.387386 -3.41325,-0.02095 -6.8265,0.540096 -10.80862,1.292246 -3.98213,1.332703 -7.39538,3.054363 -10.23975,5.164078 -2.2755,-2.133195 -5.68875,-3.303927 -9.102,-3.893688 v 0 c -2.84438,-0.778701 -5.68875,-0.978121 -9.102,-0.407868 -3.41325,0.570975 -6.8265,2.295464 -11.3775,4.401688 -3.41325,2.298477 -6.8265,4.59551 -9.67088,7.275124 -2.84437,-1.344327 -6.25762,-1.920727 -10.23975,-1.729741 v 0 c -2.84437,0.383235 -6.25762,1.53169 -9.67087,2.680144 -7.39538,3.060321 -14.22188,8.784187 -19.34175,15.639719 -2.84438,-0.75908 -6.8265,0.0053 -10.80863,0.770503 v 0 l -0.56887,0.190746 c -2.84438,0.953736 -6.25763,2.667091 -9.102,4.757666 -7.39538,4.748521 -13.08413,11.189276 -16.49738,18.563428 -3.98212,0.191463 -7.96425,1.516583 -11.3775,3.783642 l -0.56887,0.189181 c -2.84438,1.511173 -6.25763,3.7757049 -9.102,6.4145085 -6.25763,5.46065522 -10.80863,13.1663459 -13.08413,20.1129005 -3.41325,1.122815 -7.39537,3.557628 -11.3775,6.552771 v 0 c -3.41325,2.805959 -5.68875,5.236803 -7.96425,8.227372 -5.68875,6.907429 -9.102,14.744043 -9.102,22.026714 -3.98212,1.849089 -7.39537,5.19154 -10.23975,8.347458 l -0.56887,0.183643 c -2.2755,3.528686 -4.551,6.496384 -6.25763,9.837694 -3.98212,7.975358 -5.11987,16.14953 -3.41325,22.302284 -3.41325,3.871484 -6.25762,7.559433 -7.96425,11.999552 v 0 c -1.13775,1.47314 -1.70662,3.32355 -2.2755,5.17361 -0.56887,1.84969 -1.13775,3.69903 -1.13775,5.92637 -1.13775,8.15083 1.13775,15.79489 5.68875,19.95595 -1.13775,2.02408 -1.70662,4.42898 -2.2755,6.27621 -0.56887,1.84687 -0.56887,4.07541 -0.56887,6.30396 v 0.55713 c 0,1.67141 0,3.34281 0.56887,4.84003 v 0 c 0,1.67159 0.56888,3.72659 1.13775,5.22478 2.84438,6.38105 8.53313,10.79335 15.35963,11.52227 0,3.91259 1.13775,7.48317 2.84437,10.88485 v 0.55924 c 2.2755,2.6748 3.98213,4.96264 6.25763,5.9629 5.11987,4.07733 12.51525,5.24666 19.91062,3.05333 1.13775,2.47322 2.84438,5.90415 6.25763,7.70954 v 0 c 2.2755,2.14378 4.551,3.72682 7.39537,4.01797 1.70663,0.62617 3.41325,0.68925 5.11988,0.75269 1.70662,0.0638 3.41325,0.12796 5.11987,-0.37206 3.41325,-0.43512 6.8265,-1.4348 10.23975,-3.56571 1.13775,1.36376 2.2755,2.72825 3.41325,3.52747 v 0 c 1.13775,1.36581 2.2755,2.16611 3.41325,2.9669 v 0 c 1.70663,1.20209 3.98213,2.23979 6.8265,2.54658 1.13775,0.2365 2.2755,0.47323 3.98213,0.54504 1.70662,-0.49551 2.84437,-0.25806 4.551,-0.75338 2.84437,-0.25726 5.68875,-1.0825 9.102,-2.64172 0.56887,1.54188 1.13775,2.51506 1.70662,3.48848 l 0.56888,0.40448 c 0.56887,0.97384 1.13775,2.51722 2.2755,3.3274 v 0 c 1.70662,1.78577 3.41325,3.0032 5.68875,4.05812 0.56887,-0.1636 1.13775,0.24292 1.70662,0.0794 l 0.56888,0.40672 c 0.56887,0.40683 1.13775,0.24341 1.70662,0.65043 1.13775,0.24383 2.2755,0.48791 3.98213,0.56904 2.2755,-0.0816 5.68875,-0.4889 8.53312,-1.3042 0.56888,3.26787 1.70663,6.37412 2.84438,8.90976 v 0 c 0.56887,0.98221 1.13775,1.96466 1.70662,2.3751 0.56888,0.41057 1.13775,0.82125 1.13775,1.39362 0.56888,0.41086 1.13775,0.82185 1.13775,1.39433 2.2755,1.6454 3.98213,2.88071 6.8265,3.22235 2.84438,0.91635 5.11988,1.42123 7.96425,1.19262 -0.56887,3.6044 0,6.88858 0,9.75882 v 0 0 c 0.56888,2.7111 1.13775,4.84862 2.2755,6.25367 1.70663,2.97064 2.84438,4.37768 4.551,6.20221 1.13775,0.25899 1.70663,0.67606 2.84438,1.51056 l 0.56887,0.41742 c 1.13775,0.25997 2.2755,1.09555 3.41325,1.35611 -1.13775,2.04093 -1.70662,3.34877 -1.70662,5.07471 -0.56888,0.73218 -0.56888,1.88268 -0.56888,3.03319 -0.56887,0.7318 -0.56887,1.307 -0.56887,1.88219 v 0 c -0.56888,2.45697 -0.56888,4.75749 0,7.4775 v 1.72557 c 0,0.5752 0.56887,0.99503 0.56887,2.14553 0.56888,0.99539 0.56888,2.14602 1.13775,3.14177 0.56888,0.99599 1.70663,2.41314 2.2755,3.40979 0.56888,0.9969 1.70663,1.83982 2.2755,2.83731 -1.13775,1.45966 -1.70662,2.76497 -2.84437,4.22379 -0.56888,1.30471 -1.13775,2.03375 -1.70663,3.33805 0,0.57538 -0.56887,0.72875 -0.56887,1.30405 v 0 c -1.13775,2.60739 -2.2755,5.21382 -2.2755,7.51411 -0.56888,3.02765 -1.13775,6.05469 -0.56888,8.77777 0.56888,2.72366 0.56888,5.02395 1.70663,7.59763 -1.13775,1.45183 -2.84438,2.47888 -3.98213,3.92975 -0.56887,0.72525 -1.13775,0.87574 -1.70662,1.6008 v 0.5746 c -0.56888,0.15036 -1.13775,0.87519 -1.70663,1.5999 v 0 c -1.70662,2.17341 -3.41325,4.91978 -4.551,6.94121 -2.84437,5.33722 -3.98212,10.79709 -3.41325,17.53128 -1.70662,1.01707 -3.41325,2.03377 -5.11987,3.05012 -0.56888,0.14772 -1.13775,0.86833 -1.70663,1.01598 -1.13775,0.86804 -1.70662,1.01563 -2.2755,1.73582 v 0 c -2.2755,1.73486 -4.551,3.46875 -6.25762,5.62646 -2.2755,2.87525 -3.98213,5.60194 -5.11988,8.18081 -0.56887,1.28906 -1.13775,3.14917 -1.70662,4.43769 -0.56888,1.85946 -0.56888,3.00178 -1.13775,4.86073 -3.41325,0.30219 -6.25763,1.02992 -9.67088,3.04335 v 0 c -2.2755,0.58171 -5.11987,2.44791 -6.8265,4.02253 -1.13775,0.8596 -1.70662,1.5739 -2.84437,2.43308 0,0 -0.56888,0.71401 -1.13775,0.85895 -1.13775,1.42751 -2.2755,2.28585 -2.84438,3.56788 -2.2755,2.85214 -3.41325,5.41402 -5.11987,8.68696 -3.41325,-0.27229 -6.8265,0.0242 -9.67088,0.74444 v 0 l -3.98212,1.00829 c -1.13775,0.28809 -2.2755,1.14258 -3.98213,1.57453 -2.2755,1.1419 -5.11987,2.99287 -7.39537,5.26441 -2.84438,2.41352 -5.11988,5.24688 -6.8265,7.37064 -1.70663,-0.13549 -3.41325,-0.27061 -4.551,-0.54857 -0.56888,-0.42098 -1.70663,-0.13446 -2.2755,-0.5552 -0.56888,0.14332 -1.70663,-0.13385 -2.2755,0.01 v 0 c -2.84438,0.15343 -5.11988,0.16398 -7.96425,0.88148 -1.70663,0.43051 -2.84438,1.28011 -4.551,1.71043 -1.13775,0.8492 -2.84438,1.27934 -3.98213,2.12811 -2.84437,1.84001 -5.68875,4.24024 -7.96425,6.49582 -2.2755,-1.11143 -5.11987,-2.63884 -8.53312,-3.46009 v 0 c -2.2755,-0.54629 -4.551,-0.53183 -7.39538,-0.37321 -3.41325,0.86208 -6.25762,1.58048 -9.102,2.85741 -2.84437,0.7181 -5.68875,2.55204 -8.53312,4.94239 -2.84438,-2.6273 -5.11988,-4.28088 -7.39538,-4.81886 v 0 c -2.2755,-1.09361 -4.551,-1.62943 -7.39537,-1.46378 -0.56888,-0.41158 -1.70663,-0.12265 -2.2755,0.0218 l -0.56888,0.14446 c -0.56887,-0.41123 -1.13775,-0.26671 -1.70662,-0.12219 l -3.98213,1.01167 v 0 c -2.2755,0.57809 -5.11987,1.85532 -8.53312,3.27634 -0.56888,-0.96397 -1.70663,-2.33712 -2.2755,-3.30043 -0.56888,-0.96306 -1.70663,-2.33466 -2.2755,-2.74329 v -0.55377 l -0.56888,0.14524 c -0.56887,-0.40839 -1.13775,-1.37025 -2.2755,-1.63287 -0.56887,-0.96133 -1.70662,-1.22339 -2.2755,-1.63095 -4.551,-1.59789 -9.102,-2.08646 -15.35962,-0.47816 0,-1.65479 0,-3.3096 -0.56888,-4.81764 0,-1.10307 -0.56887,-2.61064 -0.56887,-3.7136 v 0 c -1.13775,-2.46244 -1.70663,-3.96887 -2.84438,-5.32709 -2.844373,-3.11697 -6.257623,-5.53053 -11.946373,-7.34386 1.13775,-3.04811 2.2755,-6.09745 2.844375,-8.99809 v 0 -3.30129 -3.30129 l -0.568875,0.15061 c -0.568875,-4.80025 -2.844375,-9.14435 -6.8265,-12.47801 2.2755,-3.35704 3.982125,-6.01385 5.68875,-9.22214 v 0 c 0.568875,-2.35339 1.706625,-4.86075 2.2755,-7.21534 0.568875,-5.65708 0,-11.00549 -2.2755,-15.88609 2.844375,-1.87835 5.119875,-4.70329 7.395375,-7.53015 v 0 c 1.706628,-2.12141 2.844378,-4.63852 4.550998,-7.31339 2.2755,-5.03952 3.41325,-10.87067 2.84438,-16.78037 2.84437,-1.34464 5.68875,-3.24208 8.53312,-5.69321 v 0 c 2.2755,-1.74112 3.98213,-3.32405 5.68875,-6.01391 3.98213,-4.43688 6.25763,-9.506 7.39538,-15.91922 3.41325,-0.41111 6.8265,-1.37611 9.102,-2.5743 v 0 c 1.70662,-0.48268 2.84437,-1.35962 3.41325,-1.52057 1.70662,-1.03826 2.2755,-1.19928 3.41325,-2.07687 4.551,-3.51281 8.53312,-7.42439 11.94637,-13.4056 1.13775,0.23263 2.2755,1.02259 3.98213,1.09392 1.13775,0.23353 2.84437,0.30553 3.98212,0.5396 v 0 c 2.84438,-0.2507 4.551,-0.17757 6.8265,-0.82404 l 0.56888,-0.16162 c 4.551,-1.29293 9.67087,-3.86644 14.22187,-7.96015 2.2755,2.15287 3.98213,3.9092 6.25763,4.9451 v 0.56062 c 1.70662,1.19867 3.98212,1.67646 5.68875,2.31606 2.2755,-0.0819 5.11987,0.2378 7.96425,-0.56547 1.70662,0.0803 2.84437,-0.24089 3.98212,-0.56208 l 0.56888,-0.16059 c 1.13775,-0.32119 1.70662,-1.04452 2.2755,-1.20517 0,-0.56279 0,-0.56279 0.56887,-0.7235 0.56888,3.21677 1.13775,5.87128 2.84438,8.2069 v 0 c 1.13775,1.9336 2.84437,3.7089 4.551,4.92199 3.98212,3.39884 8.53312,4.95269 14.79075,4.34172 0,3.3912 0,6.78241 0.56887,9.45125 v 0 c 0,1.13052 0,2.26104 0.56888,3.23476 0.56887,0.97397 1.13775,1.94817 1.13775,2.51362 2.2755,3.89945 5.11987,5.94927 10.23975,7.94696 -1.13775,1.44352 -1.70663,2.73145 -2.84438,4.17413 0,0.56623 -0.56887,0.72116 -0.56887,1.28732 -0.56888,0.72099 -1.13775,1.44184 -1.13775,2.00789 v 0 c -0.56888,0.1547 -0.56888,0.1547 -0.56888,0.72067 -0.56887,0.72057 -0.56887,0.72057 -0.56887,1.28648 l -0.56888,0.72039 c 0,0.56586 -0.56887,1.28606 -0.56887,1.85185 -0.56888,2.983 -0.56888,6.37745 0,11.88187 -3.41325,1.4835 -6.25763,2.81339 -8.53313,3.98984 v 0 c -0.56887,0.15283 -0.56887,0.71767 -1.13775,0.87045 -0.56887,0.15276 -1.13775,0.87019 -1.70662,1.02289 -1.13775,0.86991 -1.70663,1.02256 -2.2755,1.73956 l -0.56888,0.71689 c -3.41325,3.17092 -6.25762,6.75053 -9.102,13.14381 -1.13775,-0.26044 -2.84437,-0.36914 -3.98212,-0.62904 -1.13775,-0.25967 -2.2755,-0.51909 -3.41325,-0.77827 v 0 l -0.56888,0.15174 c -2.2755,0.0447 -3.98212,-0.0619 -6.25762,0.54554 v 0 c -4.551,1.21493 -9.67088,4.26416 -15.35963,8.58203 -1.13775,-1.37748 -2.2755,-2.75425 -3.41325,-3.57044 l -1.70662,-1.22339 -1.13775,-0.25546 c -3.98213,-2.28998 -9.67088,-2.99938 -16.49738,-2.28247 -1.13775,-0.25202 -1.70662,0.45848 -2.2755,1.16888 -0.56887,0.15276 -1.13775,0.86297 -1.70662,1.57305 0,0.55738 0,0.55738 -0.56888,0.70997 -0.56887,1.2671 -0.56887,2.38161 0,3.3439 0,0.55732 1.13775,0.81041 2.2755,1.06376 7.39538,-0.85993 12.51525,0.56714 15.9285,2.45361 v 0.55923 c 2.2755,1.0734 3.41325,2.45004 5.11988,4.79626 v 0.55977 c -2.84438,0.19324 -5.68875,0.38706 -9.102,0.73222 -5.68875,0.949 -9.67088,0.33109 -12.51525,-1.70158 -1.70663,-1.21815 -3.98213,-0.61238 -5.11988,0.80442 -1.13775,0.85948 -1.70662,2.1243 -1.70662,3.23785 0,1.11355 0,2.2271 1.13775,3.03932 3.98212,2.84659 10.23975,3.42585 17.63512,2.59337 3.41325,-0.89928 6.25763,-1.08927 8.53313,-0.56922 4.551,-0.0773 9.102,1.5292 12.51525,4.56045 -3.98213,2.7237 -9.67088,4.77042 -14.79075,4.98912 -5.68875,0.92855 -11.3775,-0.37459 -15.9285,-2.52824 -1.70663,-0.66673 -4.551,0.0812 -6.25763,2.20113 -0.56887,0.70641 -0.56887,1.82044 -0.56887,2.93447 0,1.11403 0.56887,2.07921 1.70662,2.3387 3.98213,1.7465 9.102,3.20084 14.22188,3.54319 2.84437,-0.18107 4.551,-0.0657 6.8265,-0.65733 7.39537,-0.24199 15.9285,-3.57991 21.61725,-8.99022 3.98212,1.21074 7.96425,1.8623 12.51525,1.24266 v 0 0 l 3.41325,-0.88664 2.2755,-0.59109 c 2.2755,-0.59109 3.98212,-1.59846 5.68875,-2.60621 7.96425,-4.33084 15.35962,-11.91521 18.77287,-19.60232 2.2755,-0.59784 3.98213,-1.61285 6.25763,-2.77782 2.2755,-1.16544 4.551,-2.33137 5.68875,-3.76574 l 0.56887,-0.14982 c 1.13775,-0.86731 2.84438,-2.45265 4.551,-4.0387 1.13775,-1.43655 2.84438,-3.02393 3.98213,-5.03001 1.13775,-1.43823 2.84437,-4.16522 3.98212,-6.74252 1.13775,-2.00926 1.70663,-3.86775 2.84438,-7.01662 0.56887,-1.85951 0.56887,-4.13645 1.13775,-6.56585 0,-1.70788 0,-3.98505 -0.56888,-6.1091 1.70663,-2.16764 3.41325,-4.33635 4.551,-6.92219 1.13775,-2.5868 2.2755,-5.17457 2.84438,-7.60885 v 0 c 1.13775,-4.29987 1.70662,-9.01632 1.13775,-12.85191 -1.70663,-8.082 -6.25763,-14.8012 -13.08413,-16.89217 1.13775,-4.298 0.56888,-8.12132 -0.56887,-11.78459 v 0 c -1.13775,-3.09301 -2.2755,-6.18458 -4.551,-8.3859 -4.551,-4.39543 -10.80863,-7.16279 -17.63513,-6.3597 -0.56887,-3.80256 -1.70662,-7.44199 -3.41325,-9.78507 v -0.56598 c -1.70662,-1.7753 -3.98212,-3.95159 -6.25762,-5.56015 l -1.70663,-0.64001 c -0.56887,-0.40154 -1.13775,-0.23793 -1.70662,-0.6393 -0.56888,-0.40123 -1.13775,-0.80235 -1.70663,-0.63857 l -0.56887,0.16378 c -0.56888,-0.40087 -1.13775,-0.23702 -1.13775,-0.80163 -2.2755,0.0913 -3.98213,0.019 -5.68875,-0.053 -3.98213,0.58501 -7.39538,1.56987 -10.80863,3.1176 -1.13775,-1.92277 -2.2755,-2.71934 -3.41325,-4.07793 -1.13775,-0.7955 -2.84437,-1.98783 -4.551,-2.61707 v 0 c -3.41325,-1.25632 -6.25762,-1.55258 -9.67087,-1.12112 -7.39538,-0.0897 -15.9285,3.51451 -22.18613,8.68783 -1.70662,-0.62124 -3.41325,-1.24175 -5.11987,-1.30344 -1.70663,-0.61925 -3.98213,-0.51434 -6.25763,0.1485 v 0 c -1.70662,-0.0601 -3.41325,0.43718 -5.11987,0.93449 -2.2755,0.66307 -3.98213,1.16038 -5.68875,2.21398 -7.96425,3.43083 -15.35963,10.02083 -19.34175,17.2733 -1.70663,-0.0607 -3.98213,0.59729 -6.25763,1.25531 -1.70662,0.49352 -3.41325,1.54026 -6.25762,2.9154 v 0 c -3.41325,2.09144 -6.8265,4.18143 -9.102,7.04584 -6.8265,5.82551 -11.377503,13.74245 -12.515253,21.22623 -3.982125,1.68406 -7.395375,4.30512 -10.808625,7.47351 v 0 c -1.706625,1.58311 -2.844375,3.00424 -3.982125,4.4249 -1.13775,1.42017 -2.2755,2.83986 -3.41325,4.80778 -4.551,7.31621 -6.8265,15.08026 -5.68875,21.33902 -3.41325,2.59452 -6.257625,6.12358 -9.102,10.19678 v 0 c -1.706625,2.66097 -3.41325,5.86727 -4.551,9.46158 -2.844375,7.88672 -2.2755,15.38062 0.568875,20.61869 -2.844375,3.50469 -5.119875,7.39864 -6.257625,11.52877 v 0 c -1.13775,3.03657 -2.2755,6.61776 -2.2755,9.89268 z m 10.23975,-11.49381 c 1.706625,-2.64845 3.41325,-5.29834 5.68875,-7.55628 5.68875,-5.37707 11.3775,-10.76259 17.06625,-15.0579 1.706625,3.38091 1.706625,7.22736 1.13775,11.22772 -0.568875,2.90077 -1.706625,5.405 -2.844375,7.90827 v 0 c -1.13775,2.5023 -2.844375,4.60745 -5.119875,6.86406 -5.119875,5.75714 -9.670875,11.9016 -14.221875,18.03741 -4.551,-4.80493 -5.119875,-13.398 -1.706625,-21.42328 z m 2.2755,37.68666 c 0.568875,-2.88518 1.706625,-5.92072 3.41325,-8.56003 3.982125,-7.0772 7.96425,-12.51863 12.51525,-18.11842 2.844375,1.98753 4.551,5.37873 5.119875,8.52406 v 3.84561 c 0,1.09874 0,2.74685 -0.568875,3.9953 v 0 c -0.568875,2.89596 -1.13775,5.24212 -2.844375,7.88564 -3.41325,6.37999 -5.68875,13.00575 -7.395375,20.02745 -6.8265,-2.06937 -11.3775,-9.64295 -9.670875,-17.74876 z m 2.844375,-54.39548 c -2.844375,-6.33761 -0.568875,-15.71913 5.119875,-22.21903 v 0 c 1.706625,-2.6647 4.551,-5.09803 6.8265,-6.82651 6.8265,-4.09234 13.084125,-7.482 19.34175,-10.32488 0.568875,3.69728 0,7.71058 -2.2755,12.19452 -1.13775,2.51591 -2.844375,5.18753 -4.551,7.30768 v 0 c -1.706625,2.11906 -3.982125,3.84356 -6.8265,5.72318 -5.68875,4.30435 -11.946375,8.75814 -17.635125,14.14504 z m 14.221875,76.81932 c 1.13775,-6.88127 3.41325,-14.06073 5.68875,-20.14686 3.982125,1.16211 6.8265,3.17341 8.533125,5.48255 1.13775,1.3569 2.2755,3.26522 2.844375,5.87201 v 0.55076 c 0.568875,1.50581 0.568875,4.2599 0.568875,7.01398 -1.13775,6.90004 -0.568875,13.36399 0.568875,19.6857 -7.96425,0.91146 -15.359625,-3.26088 -17.635125,-10.36918 -1.13775,-2.45385 -1.13775,-5.19829 -0.568875,-8.08896 z m 0,-115.27961 c -0.568875,-7.52561 3.982125,-16.49434 11.3775,-21.8822 2.844375,-2.45583 5.119875,-3.65083 7.964253,-5.0075 l 5.11987,-1.45075 c 5.11988,-1.45076 10.23975,-2.34889 14.79075,-3.08487 -0.56887,4.03238 -2.84437,7.9918 -5.11987,11.39579 -2.2755,2.84925 -4.551,4.59241 -6.8265,6.33461 v 0 c -2.2755,1.74124 -4.551,2.93015 -7.39538,4.27786 -6.257623,2.30235 -13.084123,5.3122 -19.910623,9.41706 z m 24.461623,-36.06199 c 2.2755,-7.82129 9.102,-16.40515 17.63513,-19.41168 v 0 c 2.84437,-1.37173 5.68875,-2.19004 8.53312,-1.89974 6.25763,0.42091 12.51525,1.40275 17.63513,3.27278 -2.2755,3.98616 -5.11988,7.02007 -8.53313,9.65811 -1.13775,0.87887 -2.2755,1.20246 -3.98212,2.24269 -1.13775,0.32348 -2.2755,1.20156 -3.41325,1.52492 v 0 c -2.2755,0.6467 -5.11988,0.90114 -7.96425,1.15618 -5.68875,0.51188 -12.51525,1.35025 -19.91063,3.45674 z m 0.56888,152.07922 c 1.70662,-0.43628 3.41325,-0.32061 5.68875,-0.34986 0.56887,-0.14531 1.70662,0.11646 2.2755,0.52366 1.13775,-0.29038 1.70662,0.11706 2.84437,0.37955 1.13775,0.8156 1.70663,1.22357 2.84438,2.03989 0.56887,0.40834 1.70662,1.22538 2.2755,2.18737 v 0 c 1.70662,1.227 2.2755,3.29681 3.41325,5.77696 2.2755,5.51778 4.551,11.04086 7.96425,16.28572 -7.96425,4.19914 -16.49738,3.0054 -21.61725,-1.79193 -1.70663,-1.78046 -2.84438,-4.25441 -3.98213,-6.17537 -1.13775,-6.88492 -2.2755,-13.21518 -2.2755,-18.73057 z m 27.87487,9.51055 c 1.70663,-0.98559 3.98213,-1.56031 5.68875,-1.99135 l 0.56888,-0.14369 c 1.70662,-0.43104 3.41325,-0.86208 5.68875,-0.88099 2.84437,-0.16199 5.11987,0.93283 7.39537,2.02909 v 0 c 2.2755,1.09772 3.98213,2.3397 5.11988,4.83971 3.41325,3.60475 6.8265,7.77314 11.3775,13.3411 -7.39538,5.17564 -15.9285,6.16879 -21.61725,2.56983 -2.2755,-1.10307 -3.98213,-2.34614 -5.68875,-4.69904 v -0.55544 c -1.70663,-1.79564 -3.41325,-4.14492 -4.551,-6.63505 -1.70663,-2.90076 -2.84438,-5.38807 -3.98213,-7.87417 z m 5.11988,-190.57814 c 5.11987,-7.58923 14.79075,-13.17422 22.755,-13.25573 2.84437,0.29126 5.11987,0.74835 7.39537,2.32297 5.11988,2.9911 9.102,6.87696 12.51525,11.49283 -3.98212,3.37605 -7.39537,4.90998 -11.3775,6.04719 -2.2755,0.64984 -4.551,0.74176 -6.8265,0.27648 l -0.56887,0.16264 c -1.70663,-0.62695 -3.98213,-1.0903 -6.25763,-2.10965 -5.11987,-2.98377 -11.3775,-4.51931 -17.63512,-4.93673 z M 163.84259,112.6742 c 0,-2.23072 0.56888,-4.08251 1.13775,-5.37688 0.56888,-1.85247 1.70663,-3.32657 2.2755,-4.62184 v -0.55803 c 1.13775,-1.47506 2.2755,-2.950604 3.41325,-3.868233 0.56888,-1.296595 2.2755,-2.953253 3.41325,-3.871836 2.84438,-2.57706 6.25763,-4.77683 9.102,-6.797649 2.84438,-2.022025 6.25763,-4.225888 9.102,-6.250438 1.70663,6.188141 0,12.895805 -4.551,19.372626 -1.70662,2.21656 -3.41325,4.43204 -5.68875,6.82473 -6.25762,5.87376 -11.3775,11.94176 -15.35962,18.20527 -1.13775,-1.87774 -2.2755,-3.75453 -2.84438,-5.80791 0,-2.23071 -0.56887,-4.841 0,-7.24981 z m 2.84438,29.79708 v 0 c 0.56887,-2.96524 1.70662,-6.10671 3.41325,-8.86699 3.98212,-6.81877 8.53312,-13.26382 13.653,-18.77552 3.98212,4.35993 5.11987,10.16983 3.41325,16.85997 -0.56888,2.41586 -1.13775,4.83124 -2.84438,7.59573 -2.84437,6.46942 -5.68875,14.05131 -6.8265,20.5486 -2.2755,0.13237 -3.98212,-1.02513 -5.68875,-2.18153 -1.13775,-1.32874 -2.84437,-3.04137 -3.98212,-5.48456 -1.13775,-2.99996 -1.13775,-6.34783 -1.13775,-9.6957 z m 1.13775,299.90716 c 3.41325,-2.53133 7.39537,-4.09007 11.94637,-4.6739 2.84438,-0.15452 5.68875,-0.30845 7.96425,0.8013 v 0 c 2.2755,0.55074 3.98213,1.80537 6.25763,3.47989 3.98212,4.05764 9.102,7.84102 13.653,11.21222 -6.8265,6.17789 -15.35963,8.27713 -22.18613,6.59673 v 0 c -2.2755,-1.11793 -4.551,-2.23442 -6.25762,-4.04962 l -2.84438,-3.20844 -3.41325,-3.06249 c -1.70662,-2.36704 -3.41325,-4.73227 -5.11987,-7.09569 z m 6.8265,-357.122173 c -0.56888,-4.847916 0.56887,-9.68192 2.84437,-14.882736 1.70663,-2.784536 3.98213,-6.312981 6.8265,-8.907427 v 0 0 c 2.2755,-2.412909 5.11988,-4.450402 7.96425,-5.367722 6.8265,-3.324391 13.653,-6.089539 19.91063,-8.109635 -1.13775,7.119368 -4.551,14.402337 -10.80863,19.777105 -1.70662,1.668638 -3.98212,2.956978 -7.39537,5.169026 -6.25763,3.117997 -13.08413,7.533668 -19.34175,12.321389 z m 4.551,150.682843 c 6.8265,-5.33494 16.49737,-7.0166 22.755,-3.21236 v 0 c 2.2755,1.59098 3.98212,3.34762 5.11987,5.26918 2.2755,5.53348 4.551,11.07227 5.68875,17.5022 l -5.68875,1.61436 c -1.13775,-0.23926 -2.2755,0.0837 -3.41325,-0.15516 -0.56887,0.16155 -1.70662,-0.077 -2.2755,0.0846 -2.84437,-0.87597 -5.11987,-1.35099 -6.8265,-2.54803 v -0.56092 c -1.70662,-1.19578 -2.84437,-2.55297 -3.98212,-5.03047 -3.41325,-5.18467 -7.39538,-9.63754 -11.3775,-12.96337 z m 5.11987,-71.46164 c 0.56888,-3.53152 1.13775,-7.06376 2.2755,-10.76989 0.56888,-1.29347 1.13775,-3.14737 1.70663,-5.00165 0,-1.12053 0.56887,-2.97527 1.70662,-5.00453 6.25763,1.45116 9.67088,4.90027 11.3775,11.1202 0.56888,1.51256 1.13775,4.14902 0.56888,7.12966 0,6.74052 0,12.91933 1.13775,19.88233 -1.70663,-0.0528 -3.98213,0.0645 -6.25763,-0.37884 -2.2755,0.11851 -3.98212,-1.05396 -6.25762,-2.05507 -2.2755,-1.55993 -3.98213,-3.84878 -5.11988,-6.86691 v 0 c -1.13775,-2.45686 -1.13775,-5.25608 -1.13775,-8.0553 z m 7.96425,196.63464 c 5.68875,-4.31368 11.94638,-6.53688 18.204,-5.94835 v 0 0 c 2.84438,0.37161 4.551,1.04564 6.8265,1.5699 5.11988,2.59279 11.3775,3.76483 18.204,3.66349 -0.56887,1.84519 -2.2755,3.42343 -3.98212,5.56577 -1.13775,1.42764 -3.41325,3.1525 -5.11988,4.72767 -4.551,2.31753 -9.102,4.0698 -13.08412,3.98386 v 0 0 c -1.13775,0.29735 -2.84438,0.18076 -4.551,-0.4979 -1.13775,-0.26459 -2.2755,-0.52895 -3.41325,-1.35514 -5.11988,-2.58882 -9.67088,-7.00315 -13.08413,-11.7093 z m 3.98213,-315.275713 c 0,-2.244434 0.56887,-4.112605 1.70662,-6.727458 1.13775,-2.615816 2.84438,-4.856577 4.551,-7.098419 1.70663,-2.804879 4.551,-5.421293 7.96425,-7.663195 v 0 c 2.84438,-1.49408 5.68875,-2.988759 8.53313,-3.357011 6.8265,-1.67128 13.653,-2.776155 19.34175,-2.940594 -2.2755,7.527585 -7.39538,13.712712 -14.22188,17.621624 v 0 c -2.2755,1.865824 -5.11987,2.787959 -7.96425,3.710097 -6.8265,1.650636 -13.653,3.864486 -19.91062,6.454956 z m 6.25762,391.772323 c 2.84438,-2.95947 6.25763,-4.93919 11.3775,-6.78554 2.84438,-0.71329 5.11988,-0.72041 7.96425,-0.30576 v 0 c 2.84438,0.41585 5.11988,0.97514 6.8265,1.67751 2.84438,1.54878 5.68875,3.09997 7.96425,4.22958 l 4.551,1.69769 3.98213,1.84335 c -2.2755,3.39362 -5.68875,5.93398 -9.67088,8.0471 -1.70662,0.98582 -3.98212,1.54658 -5.68875,1.96715 v 0 l -2.84437,0.70095 c -1.13775,-0.28385 -2.2755,-0.003 -2.84438,-0.42717 -2.84437,0.1378 -5.68875,-0.85072 -7.39537,-2.11888 l -1.13775,-0.2817 c -2.2755,-1.68849 -4.551,-2.81237 -6.25763,-4.63871 -2.84437,-1.54149 -5.11987,-3.22252 -6.8265,-5.60557 z m 7.39538,-274.12463 c 6.8265,-1.49312 13.08412,0.006 16.49737,4.62345 1.70663,1.18239 2.2755,3.27039 3.41325,6.3185 0.56888,2.08932 1.70663,5.70456 2.84438,8.75652 1.13775,2.48833 2.2755,5.54306 3.41325,8.03392 -5.11988,2.63773 -9.67088,2.84877 -13.653,1.76629 -2.2755,-0.45601 -5.11988,-1.86967 -6.8265,-4.18092 v 0 c -1.70663,-1.74646 -2.84438,-3.66044 -3.41325,-6.30544 -0.56888,-3.20714 -1.13775,-6.41356 -1.70663,-9.61925 -0.56887,-2.64243 -0.56887,-6.01775 -0.56887,-9.39307 z m 6.25762,73.58576 c 2.2755,-0.6532 3.98213,-1.14311 5.68875,-1.06919 l 0.56888,-0.16325 c 1.70662,0.0743 3.41325,0.14903 5.68875,0.62551 0.56887,0.40153 1.70662,0.64031 1.70662,1.20497 0.56888,-0.16282 1.13775,0.23914 1.13775,0.23914 1.13775,0.80428 1.70663,1.2066 2.2755,1.60904 1.13775,1.37038 2.2755,2.74149 2.84438,4.27529 1.13775,2.50326 1.70662,5.16909 1.70662,7.99661 0,6.78602 -0.56887,13.73167 -1.13775,20.1105 -4.551,0.14194 -7.96425,-1.16168 -10.80862,-3.18622 -1.70663,-1.77734 -2.84438,-3.71335 -3.98213,-5.64839 v 0 c -1.13775,-2.49778 -1.70662,-4.59167 -1.70662,-7.40985 v -2.25454 -2.81819 c 0,-1.12727 -0.56888,-2.09257 -0.56888,-3.21972 0,-0.56357 -0.56887,-0.96493 -0.56887,-0.96493 -0.56888,-3.78197 -1.70663,-6.27337 -2.84438,-9.32678 z m 7.39538,113.49653 c 2.2755,-3.98928 4.551,-7.41698 7.39537,-9.86944 1.13775,-1.43341 2.2755,-2.30229 3.41325,-2.60626 0.56888,-0.71719 1.70663,-1.58661 2.84438,-1.89082 l 0.56887,-0.15211 v 0 c 1.13775,-0.86983 2.2755,-1.17416 3.41325,-2.04436 l 3.98213,-1.06559 c 2.84437,-0.76114 6.25762,-1.6745 9.67087,-3.15517 3.41325,-1.4814 6.8265,-3.53154 10.23975,-5.58313 v 2.84196 c 0,1.13678 -0.56887,2.42561 -0.56887,3.56227 -0.56888,1.85673 -1.70663,4.43282 -2.84438,7.00795 -1.70662,2.15735 -3.41325,4.3136 -4.551,5.7505 -1.70662,1.58709 -3.41325,3.17345 -5.68875,4.34257 -2.2755,1.73534 -5.68875,3.20385 -8.53312,3.38931 -7.39538,1.38944 -13.653,0.78568 -19.34175,-0.52768 z m 1.13775,-338.772527 c 1.70662,-4.511313 5.11987,-9.5889097 9.102,-13.1646613 2.84437,-2.6369378 5.68875,-4.710002 8.53312,-5.6522997 v 0 c 2.84438,-1.5085854 5.68875,-1.8845987 8.53313,-1.6931272 6.25762,0.1984604 12.51525,0.4022141 18.77287,1.1801399 -3.98212,7.56586028 -10.23975,13.0284415 -17.63512,16.020387 v 0 c -2.2755,0.7458948 -5.11988,1.1118 -7.39538,1.2917113 -3.98212,0.1745511 -6.8265,0.542623 -9.67087,0.346092 z m 11.94637,415.019167 c 0.56888,-0.70791 1.13775,-1.41595 1.70663,-2.12411 l 0.56887,-0.14266 c 0.56888,-1.27402 1.70663,-2.12538 2.2755,-2.83408 2.2755,-1.7038 3.98213,-2.69915 5.68875,-3.69484 1.70663,-0.99607 2.84438,-1.28247 4.551,-1.71206 l 3.98213,-1.0024 v 0 c 2.2755,-0.005 5.11987,-0.15297 7.39537,0.41101 0,0 0.56888,0.42526 1.13775,0.28236 1.13775,0.28259 2.2755,0.56543 3.41325,0.8485 l 4.551,0.56561 c 3.41325,0.28372 6.25763,0.71119 9.67088,0.99768 -2.2755,3.98808 -5.11988,7.54512 -8.53313,10.10191 -2.84437,2.41346 -6.25762,3.82895 -10.23975,4.8166 l -1.13775,0.28219 c -1.13775,0.28218 -2.84437,0.70546 -3.98212,0.42003 -1.13775,-0.28518 -2.2755,-0.003 -3.98213,-0.71348 v 0 c -3.41325,-0.85249 -6.25762,-1.84449 -9.102,-2.83469 v 0 c -2.84437,-0.98839 -5.11987,-2.11722 -7.96425,-3.66757 z m 1.70663,-253.23371 c 3.41325,-1.58221 6.8265,-2.59885 10.23975,-2.48221 1.70662,0.0589 2.84437,0.2873 4.551,0.91395 1.70662,0.62738 3.41325,1.25547 4.551,2.05301 v 0 c 1.70662,1.76501 3.41325,3.53145 4.551,6.03543 0,0.56809 0,1.13618 0.56887,0.96837 1.13775,2.50571 1.70663,5.17986 2.84438,7.11923 0.56887,3.2441 1.70662,6.32266 2.2755,8.99987 -3.41325,1.56403 -7.39538,2.15735 -11.94638,1.78267 -2.2755,-0.46986 -4.551,-1.5057 -6.8265,-3.10679 v 0 c -1.70662,-1.19956 -2.84437,-3.13147 -3.98212,-5.62871 -1.70663,-2.89444 -2.84438,-5.38884 -3.98213,-8.44791 -1.13775,-2.49188 -1.70662,-5.15157 -2.84437,-8.20691 z m 4.551,109.02347 v 0 c -0.56888,-2.10629 0,-4.52835 0.56887,-7.51699 1.13775,-6.54533 2.2755,-13.65964 2.2755,-21.02211 7.39538,0.18079 13.653,5.23038 14.79075,12.86186 0.56888,3.24903 0.56888,6.08887 0,9.08655 -2.2755,7.44332 -5.11987,14.46987 -8.53312,19.94457 -3.41325,-1.33083 -5.68875,-3.53805 -7.39538,-6.4659 -1.13775,-1.95069 -1.70662,-4.05776 -1.70662,-6.32194 z m 5.11987,42.20828 c -0.56887,-3.24615 -0.56887,-6.6453 0.56888,-9.78599 0,-1.13329 0.56887,-1.85415 1.13775,-3.14189 v 0 c 0,-0.56677 0.56887,-1.28799 1.13775,-2.57622 l 0.56887,-0.72152 v 0 c 0.56888,-1.28865 1.13775,-2.01047 1.70663,-3.29954 0.56887,-0.72212 1.70662,-2.16673 2.84437,-3.61182 3.98213,-5.0616 7.39538,-12.24586 10.23975,-19.8496 3.41325,1.90212 5.68875,4.68983 6.8265,8.93094 1.13775,4.24303 0.56888,8.9528 -1.13775,13.4014 -1.13775,3.72298 -3.41325,7.18336 -5.68875,8.93579 -5.68875,5.51268 -11.94637,9.46809 -18.204,11.71845 z m 10.23975,-342.220063 c 2.2755,-4.163463 6.25763,-8.330657 10.80863,-11.554403 3.41325,-1.708238 6.25762,-3.227233 9.102,-3.607282 l 0.56887,-0.189902 c 2.84438,-0.379387 5.68875,-0.758169 7.96425,0.194729 5.68875,1.531645 10.80863,3.831214 15.9285,6.13837 -5.11987,6.84199 -11.94637,11.380683 -18.77287,11.920959 -2.84438,0.938991 -5.11988,0.550511 -7.39538,0.162994 -2.84437,-0.76769 -6.25762,-1.345173 -9.102,-1.540436 -2.84437,-0.762394 -5.68875,-0.954949 -9.102,-1.525029 z m 10.80863,426.431033 c 2.2755,-4.55737 5.68875,-8.26797 9.102,-10.84263 2.2755,-1.71765 4.551,-3.43625 7.39537,-4.15947 v 0 c 2.84438,-1.29407 5.68875,-2.01759 7.96425,-2.02501 2.84438,-0.15151 6.25763,-0.44696 9.67088,-0.74167 3.41325,-0.294 6.8265,-1.16042 10.23975,-2.02683 -0.56888,2.43819 -1.13775,4.30251 -2.2755,6.31027 -0.56888,0.71701 -1.13775,2.00704 -1.70663,2.72375 -0.56887,0.71659 -1.13775,1.43305 -2.2755,2.86562 -2.84437,3.00677 -6.8265,6.29681 -10.23975,7.72561 -2.84437,1.28534 -5.68875,1.42777 -8.53312,1.5708 -0.56888,0.14284 -1.13775,0.28568 -1.70663,-0.14216 -2.84437,0.14411 -5.68875,0.28883 -7.96425,-0.27876 -3.41325,-0.28012 -6.25762,-0.70217 -9.102,-1.12302 z m 2.2755,-230.47141 c 3.41325,-1.0069 7.39537,-1.61177 10.80862,-0.90771 2.2755,-0.0999 3.41325,0.70622 5.11988,1.34551 1.70662,0.64002 2.84437,2.01883 3.98212,3.39836 v 0 c 1.70663,1.78498 2.2755,4.47544 2.84438,6.59503 l 1.13775,4.8122 c 0,1.14316 0.56887,2.69274 0.56887,3.83602 v 1.14329 c 0.56888,3.26528 0.56888,6.69548 1.13775,9.39008 -2.2755,0.65562 -3.98212,0.57599 -6.25762,0.66074 -1.70663,-0.0788 -3.41325,-0.72807 -5.11988,-0.80601 v -0.57056 c -2.2755,-1.05365 -4.551,-2.10585 -5.68875,-4.05631 v 0 c -1.13775,-1.94948 -2.2755,-3.89801 -3.41325,-6.41517 -1.13775,-6.50228 -3.41325,-12.09811 -5.11987,-18.42547 z m 23.32387,-217.771574 c 3.41325,-4.571439 7.96425,-7.811616 12.51525,-9.908992 3.41325,-1.14376 6.8265,-2.287519 9.67088,-2.092918 v 0 c 2.84437,0.195808 5.11987,1.157494 6.8265,2.310647 2.84437,1.924333 5.11987,3.465966 7.39537,5.009524 2.2755,2.696711 3.98213,4.433242 5.68875,6.17122 -5.68875,5.336233 -13.08412,8.355323 -19.34175,7.553446 -2.84437,-0.205859 -4.551,-0.787552 -6.8265,-1.75309 -2.2755,-1.537058 -4.551,-3.07219 -7.39537,-4.415975 -2.2755,-0.958857 -5.11988,-1.726483 -8.53313,-2.873862 z m 3.98213,423.050774 c 0.56887,-4.14937 2.84437,-8.16598 5.68875,-11.75945 2.2755,-2.30414 3.98212,-4.46293 6.8265,-6.34352 v 0 c 2.2755,-1.16122 4.551,-2.89668 7.39537,-3.63224 3.41325,-0.88267 6.8265,-2.34011 10.23975,-3.79826 3.41325,-1.45889 6.25763,-2.77114 9.67088,-4.23142 l 0.56887,-0.72362 c 0,4.60973 -1.13775,8.93637 -3.41325,12.40192 -1.13775,2.01973 -2.2755,4.03876 -3.98212,5.62734 -0.56888,0.72116 -1.13775,1.4422 -2.2755,2.30872 -0.56888,0.72075 -1.70663,1.58685 -2.2755,2.30729 -2.84438,1.87643 -5.68875,3.1773 -8.53313,3.90353 l -1.13775,0.29049 -3.98212,1.01672 -5.11988,1.30721 c -3.41325,0.29888 -6.8265,1.17071 -9.67087,1.32529 z m 4.551,-194.06963 c 3.41325,-0.42112 7.39537,-0.43383 10.80862,0.86763 3.41325,1.87828 5.68875,5.23775 6.8265,7.2059 v 0 c 1.13775,1.96911 1.70663,4.67744 1.70663,8.12425 0,3.44682 -0.56888,7.05628 -0.56888,10.50274 0,0.57441 -0.56887,1.31098 -0.56887,2.45968 0,2.29739 -0.56888,4.75635 -1.13775,7.78905 -1.70663,-0.0903 -3.98213,-0.59263 -5.68875,-1.25558 -1.70663,-0.0888 -2.84438,-1.48553 -4.551,-2.71958 -0.56888,-0.4111 -0.56888,-0.98419 -1.13775,-1.39511 -0.56888,-0.41081 -0.56888,-0.98377 -1.13775,-0.8215 -0.56888,-0.98341 -1.13775,-1.96658 -1.70663,-3.52224 v 0 c -0.56887,-2.12796 -1.13775,-4.82803 -1.13775,-7.11844 0,-3.43563 0,-6.87125 -0.56887,-10.14231 -0.56888,-3.27034 -0.56888,-6.70524 -1.13775,-9.97449 z m 3.98212,-85.94057 v 0 c 6.25763,-2.49364 11.94638,-2.51748 16.49738,0.68375 l 0.56887,-0.17395 c 1.70663,1.20262 2.84438,2.57993 4.551,4.35968 2.84438,4.88756 7.39538,8.68878 11.94638,13.07506 -2.2755,1.83874 -4.551,3.10061 -6.25763,4.19062 -2.84437,0.85683 -5.11987,1.5423 -7.39537,1.65282 -1.70663,0.51428 -3.41325,0.45397 -5.11988,0.39402 -1.13775,-0.80548 -2.84437,-0.86459 -3.98212,-1.66911 v 0 c -2.84438,-1.43551 -4.551,-3.21327 -5.68875,-5.16216 -1.13775,-2.52118 -2.84438,-5.44108 -3.41325,-8.706 -0.56888,-1.54531 -1.13775,-2.51734 -1.13775,-4.23605 -0.56888,-1.54447 -0.56888,-2.69016 -0.56888,-4.40868 z m 14.79075,249.35059 c 0,-4.02087 0.56888,-8.19053 2.84438,-12.23398 1.13775,-2.59764 2.84437,-5.34588 5.11987,-7.6702 v 0 c 1.70663,-1.60033 3.98213,-3.9271 6.8265,-5.82965 2.84438,-1.90376 6.25763,-3.9592 9.102,-6.44243 2.84438,-2.48502 5.68875,-4.39432 8.53313,-7.46049 1.70662,3.59253 1.70662,8.21669 0.56887,11.9847 -0.56887,1.88346 -1.70662,3.91614 -2.2755,5.7987 -0.56887,1.3046 -1.13775,2.60896 -1.70662,3.33559 -0.56888,0.72652 -1.70663,1.60189 -2.2755,2.90534 -2.2755,2.32643 -4.551,4.6514 -7.39538,5.97034 -2.84437,1.89448 -6.25762,3.93596 -9.67087,5.40056 -3.41325,1.46388 -6.25763,2.77902 -9.67088,4.24152 z m 4.551,-115.01208 v 0 -4.02424 c 0,-1.14979 0.56888,-2.4601 0.56888,-4.18495 1.13775,-3.19679 1.70662,-6.8086 2.2755,-10.42113 v -1.15038 c 0.56887,-1.31236 0.56887,-3.03811 0.56887,-4.18862 l 0.56888,-5.34009 c 1.70662,0.087 3.41325,0.7501 5.11987,1.41389 1.70663,0.66451 2.84438,1.49202 4.551,2.73419 2.84438,2.64933 3.98213,6.36316 4.551,9.66275 0,2.88408 0,5.76817 -0.56887,8.8123 -1.13775,3.77992 -2.2755,6.98189 -3.98213,10.91807 -1.13775,3.19913 -2.2755,6.39707 -3.98212,9.75191 -3.41325,-1.35346 -6.25763,-3.43788 -7.96425,-6.41231 -1.13775,-2.55671 -1.70663,-4.69694 -1.70663,-7.57139 z m 6.8265,-292.027606 c 1.70663,-1.722206 3.98213,-3.635578 6.25763,-4.397362 2.2755,-1.338301 4.551,-2.100325 6.8265,-2.285353 3.41325,-1.142676 6.25762,-0.939585 9.102,-0.157333 v 0.577961 c 2.2755,0.396063 3.98212,2.139699 5.68875,3.884776 2.2755,2.714888 3.41325,5.231262 5.11987,7.560322 1.13775,2.519083 2.84438,4.85145 3.98213,7.373242 -3.41325,2.284032 -6.8265,3.987817 -10.23975,4.533995 v 0 c -2.84438,0.359344 -5.68875,-0.436393 -9.102,-1.042405 -1.70663,-1.168139 -3.98213,-2.723976 -5.11988,-4.07811 -2.2755,-2.7061 -4.551,-4.832855 -6.25762,-6.570412 -2.2755,-2.122482 -4.551,-3.666763 -6.25763,-5.399321 z m 2.84438,360.723176 c 0.56887,-2.45631 1.13775,-4.91309 2.84437,-7.67662 v 0 l 0.56888,-0.72941 c 1.13775,-2.61197 2.84437,-4.80198 4.551,-6.9931 2.84437,-2.50012 5.11987,-5.42521 7.39537,-8.35222 2.2755,-3.50672 4.551,-6.43783 6.8265,-9.94911 5.11988,4.96916 5.68875,14.07634 1.70663,22.67179 -1.70663,3.34998 -3.41325,6.12006 -5.68875,8.46298 -0.56888,0.15217 -1.13775,0.30433 -1.13775,0.88205 -1.13775,0.88182 -2.2755,1.76339 -3.41325,3.22208 -1.13775,0.88097 -2.84438,2.49051 -3.98213,3.37081 -2.84437,2.48804 -6.25762,5.12553 -9.102,7.0338 -1.13775,-3.15283 -1.70662,-7.03188 -0.56887,-11.94305 z m 0.56887,-201.74349 c 6.25763,-5.368027 12.51525,-7.857507 19.34175,-7.054133 2.2755,-0.116118 4.551,0.346753 6.8265,1.968073 2.84438,1.45031 5.68875,2.3237 7.96425,3.37144 2.2755,1.04921 5.11988,1.92763 8.53313,3.21633 -2.84438,3.76079 -7.39538,7.45295 -12.51525,10.15412 -3.41325,1.02784 -6.8265,2.05568 -9.102,1.58451 v 0 c -3.41325,-0.12712 -5.68875,-0.59613 -7.39538,-1.81339 l -7.39537,-5.26225 c -2.2755,-2.19146 -3.98213,-3.97752 -6.25763,-6.1647 z m 0.56888,169.18073 c -0.56888,-2.14812 0,-5.18432 0.56887,-8.22111 v 0 c 0,-0.5761 0.56888,-1.30893 0.56888,-1.88509 v 0 c 0.56887,-0.73301 0.56887,-1.30923 0.56887,-1.88544 0.56888,-1.30953 1.13775,-2.61931 1.70663,-3.92932 1.70662,-3.35492 3.41325,-7.28839 5.11987,-10.64709 1.13775,-3.20191 2.84438,-6.56392 3.98213,-10.34588 6.25762,2.29418 9.67087,10.01683 8.53312,19.00664 -0.56887,3.04805 -1.70662,6.25193 -3.41325,9.03286 -0.56887,1.31187 -1.70662,3.3572 -2.84437,4.82419 -1.13775,1.46652 -2.2755,2.93255 -3.41325,4.97534 l -6.8265,8.78248 c -1.13775,-1.41992 -2.2755,-2.83912 -2.84438,-4.41276 -0.56887,-0.42099 -0.56887,-1.5733 -1.13775,-2.57013 v -1.15219 0 c 0,-0.57609 -0.56887,-0.99647 -0.56887,-1.5725 z M 370.34422,93.716234 c 1.70662,-1.680192 2.84437,-3.187273 3.98212,-4.694835 1.13775,-1.508044 2.84438,-2.610524 4.551,-3.713352 2.2755,-1.85812 5.68875,-3.485051 9.67088,-4.705685 v 0 c 1.13775,-0.348753 2.2755,-0.115807 3.41325,-0.464439 1.13775,0.233296 2.84437,-0.28947 3.98212,-0.05574 3.41325,0.702607 6.8265,0.82443 9.67088,0.538217 3.98212,-0.04948 6.8265,-0.334079 9.67087,-0.618062 -0.56887,1.342033 -1.13775,2.099662 -1.70662,3.441273 -0.56888,1.341374 -1.13775,2.098529 -2.2755,3.612472 -1.70663,2.85369 -3.98213,4.71157 -5.68875,6.395975 -1.70663,1.100604 -3.41325,2.200854 -4.551,2.545634 -1.70663,1.099761 -3.41325,1.616748 -5.11988,2.133739 v 0 0 c -2.84437,0.861647 -5.68875,1.14167 -8.53312,0.840956 -5.68875,-1.178548 -11.3775,-2.931201 -17.06625,-5.256151 z m 0,-152.99475 c 4.551,-2.675878 9.102,-3.612217 13.653,-3.385653 3.41325,0.02649 6.25762,0.825173 7.96425,2.585236 v 0 c 2.2755,1.57293 3.41325,3.524465 4.551,6.059257 1.13775,3.11841 1.70662,6.425582 2.84437,8.963925 0.56888,3.308915 1.13775,6.03584 2.2755,9.160148 -7.39537,2.999951 -13.653,2.138248 -18.204,-2.180987 -2.2755,-1.575338 -3.41325,-2.942833 -4.551,-4.890034 -0.56887,-3.294714 -2.2755,-5.632076 -3.41325,-8.736162 l -2.2755,-3.884531 z m 31.28812,131.790383 c 1.70663,-4.605514 3.41325,-7.463956 5.68875,-9.916102 1.70663,-2.861395 4.551,-4.908635 7.96425,-7.133203 1.13775,-0.936649 2.2755,-1.289012 3.41325,-2.226012 v 0 c 1.13775,-0.352484 2.84438,-1.466159 3.98213,-1.818763 v 0 l 5.11987,-1.586717 c 1.13775,-0.938324 2.84438,-1.467412 4.551,-2.582588 3.41325,-1.644977 6.25763,-3.700888 10.23975,-6.698621 0.56888,5.108286 -1.13775,10.920449 -4.551,16.668152 -2.2755,3.633116 -5.11987,6.852288 -7.96425,8.897365 v 0 c -1.70662,1.109328 -2.84437,2.04387 -3.98212,2.392743 -1.70663,1.108548 -2.84438,1.4573 -4.551,1.39549 l -5.11988,1.569928 c -1.70662,-0.06092 -2.84437,0.288075 -4.551,0.227652 l -0.56887,0.174555 c -1.70663,0.523671 -3.41325,0.463837 -5.11988,0.404377 -1.13775,0.349354 -2.84437,0.290362 -3.98212,0.05694 z m 3.98213,-127.207132 c 2.2755,-1.334689 3.98212,-1.314583 6.25762,-1.481855 1.13775,-0.375475 2.84438,-0.354469 3.98213,0.438857 1.13775,0.209346 2.2755,0.418934 3.41325,1.213464 1.13775,0.210189 2.2755,1.590504 3.41325,2.386479 1.13775,1.381639 1.70662,2.365352 2.84437,3.748135 v 0 c 1.13775,2.554473 1.13775,5.481893 1.13775,8.409314 -0.56887,7.79608 -1.70662,14.603995 -3.98212,21.191129 -6.25763,-0.318832 -10.23975,-3.704312 -12.51525,-9.972188 -0.56888,-1.566065 -1.13775,-3.71539 -1.13775,-7.2171 0,-2.918091 -0.56888,-6.233386 -1.13775,-9.547962 -0.56888,-2.730412 -1.70663,-5.856165 -2.2755,-9.168273 z m 19.34175,93.116475 v -3.511821 c 0,-0.585309 0.56887,-0.763294 0.56887,-1.348653 0,-1.170727 0.56888,-3.105174 1.70663,-4.632959 0,-1.756628 1.13775,-3.285256 2.2755,-4.814365 0,-0.58579 0.56887,-0.764739 0.56887,-1.350579 l 0.56888,-0.179012 c 0,-0.585911 0.56887,-1.35094 1.13775,-2.116104 0.56887,-0.76527 1.70662,-2.296185 2.84437,-3.24126 5.11988,-5.722962 9.67088,-11.8605857 13.653,-19.5884147 1.70663,1.2208688 2.84438,3.21152508 3.41325,5.3834806 1.13775,1.9923415 1.13775,4.9335998 1.13775,7.8748681 0,1.764753 -0.56887,3.708646 -0.56887,5.473218 -0.56888,1.943354 -1.70663,4.064924 -2.2755,5.419415 v 0 c -1.13775,1.532601 -1.70663,2.886493 -2.84438,4.418251 -1.13775,1.531276 -2.2755,3.062071 -3.41325,4.0051 l -0.56887,0.177805 c -2.84438,2.649816 -5.68875,5.297833 -9.102,7.53504 -1.13775,0.940792 -2.84438,1.472588 -4.551,2.590172 -1.70663,1.117216 -2.84438,2.056994 -4.551,2.588246 v -1.755915 z m 1.70662,-44.4440045 c 0,-2.3419363 1.13775,-5.0489955 2.2755,-8.3427425 2.2755,-7.177072 4.551,-14.945646 5.11988,-21.578826 1.13775,-0.369817 2.2755,-0.153128 3.41325,0.0638 0.56887,0.988589 1.70662,1.206061 2.2755,2.195189 1.13775,0.218013 1.70662,1.207685 2.84437,2.01341 0.56888,0.403041 1.13775,1.393496 1.70663,2.384188 1.13775,2.56958 2.2755,5.727954 2.2755,9.253498 v 0 c 0,2.937953 -1.13775,6.827898 -2.2755,9.541698 -1.70663,3.4817297 -3.41325,6.9616429 -5.68875,11.20756215 -2.2755,3.07001575 -3.98213,6.54392375 -6.25763,9.02399645 -4.551,-3.8282395 -6.25762,-9.14003174 -5.68875,-15.7617751 z"
       id="text1"
       style="font-size:568.875px;line-height:0;font-family:'Desert Rope';-inkscape-font-specification:'Desert Rope';letter-spacing:0px;fill:#502d16;stroke:#e9c6af;stroke-width:21.992;stroke-dasharray:none;paint-order:stroke markers fill"
       aria-label="S"
       transform="matrix(0.90764706,0,0,0.90764706,23.641471,74.160026)" />
  </g>
</svg>
